<svg width="19" height="27" viewBox="0 0 19 27" fill="none" xmlns="http://www.w3.org/2000/svg">
<path d="M-1.75238e-05 17.8565C-1.75238e-05 14.4005 1.34398 12.9125 4.46398 11.4725L9.83998 8.97648C10.56 8.59248 10.752 8.35248 10.752 7.44048V7.24848C10.752 5.52048 10.176 4.65648 8.30398 4.65648H8.20798C6.47998 4.65648 5.85598 5.56848 5.85598 7.29648V9.07248H0.335982V6.57648C0.335982 2.88048 1.91998 0.000473976 7.82398 0.000473976H8.59198C14.544 0.000473976 16.56 2.35248 16.56 6.57648V19.9205C16.56 21.0245 16.8 21.3605 17.952 21.3605H18.672V26.6885H13.776C11.904 26.6885 11.136 25.4405 10.896 23.7125C10.272 24.6725 8.54398 26.8805 5.56798 26.8805H5.42398C2.15998 26.8805 -1.75238e-05 24.3365 -1.75238e-05 20.8325V17.8565ZM10.752 13.2485C10.128 13.6325 8.35198 14.6405 7.58398 15.1685C6.47998 15.8885 5.95198 16.6085 5.95198 18.2885V19.5845C5.95198 21.2645 6.71998 22.2245 8.20798 22.2245C9.74398 22.2245 10.752 21.0245 10.752 19.3445V13.2485Z" fill="black"/>
</svg>
