<svg width="25" height="36" viewBox="0 0 25 36" fill="none" xmlns="http://www.w3.org/2000/svg">
<path d="M14.064 35.7119H10.704L7.34399 18.7199C6.28799 13.5359 5.80799 10.5599 5.27999 7.48791C5.42399 11.4719 5.42399 14.7839 5.42399 19.8719V35.7119H-1.44839e-05V-8.67844e-05H8.54399L10.992 12.7199C11.76 16.8959 12.192 19.2959 12.576 21.9839C12.96 19.2959 13.344 16.8959 14.112 12.7199L16.56 -8.67844e-05H24.96V35.7119H19.392V19.8719C19.392 14.7839 19.44 11.4719 19.584 7.48791C19.056 10.5119 18.48 13.5839 17.52 18.3839L14.064 35.7119Z" fill="black"/>
</svg>
