<svg width="434" height="449" viewBox="0 0 434 449" fill="none" xmlns="http://www.w3.org/2000/svg">
<rect x="177.181" y="0.686008" width="298" height="343" rx="7.5" transform="rotate(30.9682 177.181 0.686008)" fill="#242424" stroke="#5F5F5F"/>
<path d="M179.417 44.595L185.404 34.6174L192.128 38.652L191.084 40.3913L186.47 37.6226L185.043 40.0001L189.311 42.5612L188.267 44.3004L184 41.7393L182.57 44.1217L187.203 46.9021L186.159 48.6413L179.417 44.595ZM189.827 51.0346C189.35 50.748 188.974 50.4099 188.7 50.0201C188.428 49.6271 188.281 49.2012 188.26 48.7426C188.245 48.2827 188.385 47.8059 188.682 47.3122C188.931 46.8964 189.217 46.5931 189.539 46.4021C189.861 46.2112 190.206 46.1085 190.572 46.0943C190.938 46.08 191.315 46.1294 191.702 46.2425C192.093 46.3575 192.484 46.5082 192.875 46.6947C193.338 46.9104 193.714 47.0787 194.004 47.1995C194.296 47.3172 194.526 47.3714 194.695 47.3623C194.864 47.3532 194.996 47.2691 195.091 47.11L195.109 47.0808C195.294 46.7722 195.34 46.475 195.246 46.1892C195.156 45.9053 194.934 45.6571 194.58 45.4447C194.206 45.2205 193.859 45.125 193.539 45.1581C193.221 45.188 192.952 45.3049 192.732 45.5088L190.906 44.201C191.277 43.8048 191.704 43.5268 192.189 43.367C192.675 43.204 193.198 43.1686 193.757 43.2609C194.32 43.3519 194.901 43.5767 195.499 43.9353C195.915 44.1848 196.283 44.4723 196.605 44.7978C196.93 45.1252 197.178 45.4799 197.351 45.8619C197.527 46.2459 197.605 46.6503 197.584 47.0751C197.565 47.4967 197.422 47.93 197.155 48.3749L194.126 53.4222L192.158 52.2411L192.781 51.2034L192.722 51.1683C192.462 51.33 192.177 51.4398 191.869 51.4976C191.562 51.5521 191.237 51.5449 190.894 51.4761C190.553 51.4039 190.197 51.2568 189.827 51.0346ZM191.281 49.9589C191.586 50.1421 191.892 50.2438 192.198 50.264C192.506 50.2809 192.789 50.2254 193.047 50.0974C193.305 49.9695 193.513 49.7739 193.67 49.5109L194.147 48.7167C194.057 48.72 193.944 48.7054 193.809 48.6729C193.679 48.6391 193.535 48.5949 193.378 48.5403C193.223 48.4825 193.069 48.423 192.915 48.362C192.764 48.2976 192.627 48.2395 192.503 48.1875C192.238 48.077 191.991 48.0062 191.763 47.975C191.534 47.9438 191.329 47.9646 191.149 48.0373C190.97 48.1068 190.822 48.239 190.705 48.4339C190.536 48.7165 190.508 48.9938 190.623 49.266C190.744 49.5369 190.963 49.7679 191.281 49.9589ZM205.173 52.7756L203.203 51.7523C203.268 51.5704 203.285 51.3823 203.256 51.1881C203.229 50.9906 203.151 50.8003 203.022 50.6171C202.899 50.4326 202.717 50.2682 202.477 50.124C202.155 49.931 201.843 49.8365 201.54 49.8403C201.24 49.841 201.022 49.9533 200.887 50.1774C200.78 50.3561 200.761 50.55 200.83 50.7592C200.899 50.9683 201.084 51.2146 201.387 51.4978L202.578 52.5834C203.216 53.1694 203.614 53.7353 203.772 54.281C203.931 54.8266 203.848 55.3691 203.525 55.9082C203.23 56.3987 202.828 56.7423 202.316 56.9391C201.808 57.1378 201.242 57.191 200.617 57.0987C199.997 57.0052 199.363 56.7634 198.713 56.3736C197.722 55.7792 197.057 55.0993 196.717 54.334C196.381 53.5674 196.378 52.7967 196.706 52.0217L198.812 53.1395C198.692 53.4786 198.703 53.7989 198.845 54.1003C198.988 54.3985 199.245 54.6587 199.615 54.8809C199.979 55.0992 200.313 55.2048 200.618 55.1976C200.928 55.1892 201.152 55.0739 201.289 54.8518C201.399 54.6614 201.412 54.4594 201.329 54.2457C201.247 54.0287 201.063 53.7903 200.777 53.5304L199.636 52.4945C198.993 51.9098 198.601 51.33 198.46 50.7551C198.322 50.1821 198.421 49.6163 198.756 49.0577C199.045 48.577 199.423 48.2408 199.892 48.0492C200.363 47.8596 200.893 47.8128 201.48 47.909C202.071 48.0072 202.686 48.2482 203.326 48.6322C204.271 49.1994 204.895 49.8455 205.197 50.5705C205.503 51.2974 205.495 52.0324 205.173 52.7756ZM206.763 61.2042C205.993 60.7423 205.424 60.1888 205.056 59.5437C204.692 58.8973 204.534 58.197 204.58 57.4428C204.628 56.6853 204.889 55.912 205.363 55.1227C205.825 54.353 206.38 53.7671 207.027 53.365C207.675 52.9629 208.367 52.7623 209.105 52.763C209.845 52.7656 210.583 52.9872 211.317 53.4277C211.81 53.724 212.222 54.0793 212.552 54.4938C212.887 54.907 213.12 55.3666 213.249 55.8727C213.381 56.3807 213.394 56.927 213.286 57.5117C213.18 58.0931 212.936 58.7021 212.554 59.3387L212.212 59.9087L205.893 56.1167L206.665 54.8305L211.03 57.4501C211.209 57.1513 211.303 56.8476 211.312 56.539C211.32 56.2305 211.248 55.942 211.095 55.6737C210.948 55.4041 210.723 55.1787 210.421 54.9974C210.106 54.8084 209.783 54.7138 209.452 54.7138C209.125 54.7125 208.821 54.7927 208.538 54.9544C208.258 55.1129 208.027 55.3389 207.847 55.6326L207.113 56.8554C206.891 57.2257 206.767 57.5865 206.741 57.938C206.719 58.2913 206.791 58.6171 206.957 58.9153C207.122 59.2135 207.379 59.4669 207.726 59.6754C207.957 59.8138 208.188 59.908 208.418 59.9581C208.649 60.0081 208.871 60.0091 209.086 59.961C209.3 59.913 209.5 59.8162 209.684 59.6707L211.528 60.9493C211.153 61.352 210.712 61.6349 210.203 61.7979C209.7 61.9596 209.153 61.994 208.564 61.9011C207.98 61.8068 207.38 61.5746 206.763 61.2042ZM222.43 63.7148L221.442 65.3615L216.891 62.6308L217.88 60.9841L222.43 63.7148ZM224.421 71.6022L228.912 64.119L230.987 65.3645L226.496 72.8477L224.421 71.6022ZM230.533 63.78C230.224 63.5948 230.021 63.3337 229.923 62.9965C229.83 62.6581 229.87 62.3443 230.044 62.0552C230.215 61.7694 230.471 61.5895 230.812 61.5155C231.157 61.4401 231.485 61.4951 231.793 61.6802C232.102 61.8654 232.302 62.1272 232.395 62.4657C232.493 62.8028 232.457 63.1143 232.285 63.4001C232.112 63.6892 231.852 63.8714 231.506 63.9467C231.166 64.0207 230.842 63.9652 230.533 63.78ZM232.83 70.7646L230.234 75.0908L228.159 73.8454L232.649 66.3621L234.627 67.5491L233.835 68.8694L233.923 68.9221C234.35 68.5862 234.834 68.4086 235.376 68.3892C235.919 68.3665 236.469 68.5218 237.024 68.8551C237.544 69.1669 237.929 69.5525 238.179 70.0118C238.429 70.4711 238.535 70.9762 238.496 71.527C238.459 72.0747 238.266 72.6392 237.917 73.2206L235.057 77.9853L232.982 76.7398L235.619 72.3453C235.897 71.8893 235.995 71.4619 235.911 71.063C235.83 70.6609 235.582 70.3351 235.166 70.0856C234.887 69.918 234.604 69.8299 234.317 69.8215C234.034 69.815 233.763 69.8909 233.505 70.0494C233.251 70.2066 233.027 70.445 232.83 70.7646Z" fill="white"/>
<path d="M34.6757 285.857C124.841 317.477 161.212 316.816 379.553 192.764" stroke="#5EB0BF" stroke-width="2"/>
<line x1="169.293" y1="61.4442" x2="33.7859" y2="287.249" stroke="#3D3D3D" stroke-width="2"/>
<line x1="33.4429" y1="285.877" x2="248.621" y2="415.007" stroke="#3D3D3D" stroke-width="2"/>
</svg>
