<svg width="449" height="184" viewBox="0 0 449 184" fill="none" xmlns="http://www.w3.org/2000/svg">
<rect x="19.2598" y="0.577655" width="435" height="110" rx="7.5" transform="rotate(9.77837 19.2598 0.577655)" fill="#242424" stroke="#3D3D3D"/>
<path d="M29.7497 38.4089L27.8012 38.0731L32.2524 29.9843L34.5957 30.3882L36.0783 39.4996L34.1297 39.1638L33.1189 32.1574L33.0517 32.1458L29.7497 38.4089ZM30.2105 35.0074L34.8131 35.8006L34.5685 37.22L29.9659 36.4268L30.2105 35.0074ZM37.1134 39.678L38.5957 31.0775L41.9888 31.6623C42.6411 31.7747 43.1754 31.9951 43.5916 32.3234C44.0083 32.6489 44.2991 33.0522 44.4641 33.5332C44.6324 34.0119 44.6674 34.5368 44.5689 35.108C44.4705 35.6791 44.2605 36.1618 43.9388 36.5561C43.6172 36.9504 43.2016 37.229 42.6921 37.392C42.1854 37.5555 41.6017 37.5803 40.941 37.4664L38.7783 37.0937L39.0294 35.6365L40.8981 35.9585C41.2481 36.0188 41.5468 36.0083 41.7944 35.927C42.0452 35.8434 42.2451 35.7035 42.3943 35.5072C42.5467 35.3086 42.6473 35.0679 42.696 34.7852C42.7452 34.4996 42.7308 34.2406 42.6526 34.008C42.5778 33.7731 42.4357 33.5771 42.2264 33.42C42.0176 33.26 41.7368 33.1497 41.3841 33.0889L40.1578 32.8775L38.9318 39.9914L37.1134 39.678ZM48.0707 32.7105L46.5885 41.311L44.7701 40.9976L46.2523 32.3971L48.0707 32.7105ZM50.8215 42.0405L52.3037 33.44L54.1221 33.7534L53.4686 37.5455L53.5819 37.565L57.3305 34.3063L59.51 34.6819L55.6547 37.9828L58.0656 43.2889L55.8903 42.914L54.1438 38.9721L53.0611 39.9098L52.6399 42.3539L50.8215 42.0405ZM61.3856 43.9908C60.7221 43.8765 60.1741 43.6437 59.7417 43.2924C59.3125 42.9388 59.0119 42.4921 58.8397 41.9521C58.668 41.4094 58.6408 40.7979 58.7581 40.1176C58.8724 39.4541 59.1016 38.8939 59.4455 38.4372C59.7894 37.9804 60.2193 37.6524 60.7351 37.453C61.2537 37.2541 61.8293 37.2092 62.462 37.3182C62.8876 37.3915 63.2719 37.5284 63.615 37.7288C63.9614 37.9269 64.2484 38.1853 64.476 38.5042C64.7063 38.8235 64.863 39.2022 64.9461 39.6403C65.0296 40.0756 65.0241 40.5676 64.9295 41.1163L64.8449 41.6076L59.3982 40.669L59.5892 39.5603L63.3519 40.2088C63.3963 39.9512 63.3797 39.7134 63.3019 39.4953C63.2242 39.2772 63.0956 39.0951 62.9161 38.9488C62.7399 38.8003 62.5217 38.7036 62.2613 38.6587C61.9897 38.6119 61.7381 38.6334 61.5064 38.7232C61.278 38.8107 61.0869 38.9493 60.9331 39.139C60.7799 39.3259 60.6799 39.5465 60.6332 39.8008L60.4515 40.8548C60.3965 41.174 60.4078 41.4599 60.4853 41.7125C60.5656 41.9656 60.7041 42.174 60.9008 42.3376C61.0975 42.5012 61.3456 42.6089 61.6451 42.6605C61.8439 42.6947 62.0307 42.6981 62.2055 42.6706C62.3804 42.643 62.5362 42.5834 62.6731 42.4917C62.81 42.4 62.9232 42.2782 63.0128 42.1265L64.6486 42.5208C64.4961 42.9039 64.264 43.2214 63.9525 43.4733C63.6443 43.7228 63.2716 43.895 62.8344 43.9897C62.4004 44.0821 61.9175 44.0825 61.3856 43.9908ZM66.0497 47.1557C65.8229 47.1166 65.6133 47.0617 65.4208 46.9911C65.2306 46.9237 65.0757 46.8523 64.9561 46.7769L65.5894 45.511C65.7883 45.6116 65.9712 45.6791 66.1382 45.7137C66.308 45.7487 66.4618 45.7348 66.5994 45.6721C66.7399 45.6098 66.8667 45.4846 66.9798 45.2966L67.1318 45.0417L65.9615 38.0078L67.8428 38.332L68.3619 43.2991L68.4291 43.3107L70.5935 38.8061L72.4874 39.1325L68.7485 45.8479C68.5683 46.1743 68.3524 46.4484 68.1009 46.6703C67.8516 46.8954 67.5582 47.051 67.2205 47.1369C66.8823 47.2256 66.4921 47.2319 66.0497 47.1557Z" fill="white"/>
<rect x="22.5935" y="51.8902" width="412" height="36" rx="3.5" transform="rotate(9.77837 22.5935 51.8902)" stroke="#3D3D3D"/>
<path fill-rule="evenodd" clip-rule="evenodd" d="M401.841 128.846L399.225 128.396C398.531 128.276 397.822 128.417 397.254 128.788C396.685 129.159 396.303 129.729 396.192 130.373L393.959 143.325C393.848 143.97 394.018 144.635 394.43 145.174C394.841 145.714 395.462 146.085 396.156 146.204L408.361 148.308C409.055 148.427 409.764 148.286 410.333 147.915C410.902 147.544 411.284 146.975 411.395 146.33L411.813 143.902L414.429 144.352C415.123 144.472 415.832 144.331 416.4 143.96C416.969 143.589 417.351 143.019 417.462 142.375L419.694 129.423C419.806 128.778 419.636 128.113 419.224 127.573C418.812 127.034 418.192 126.663 417.498 126.543L405.293 124.44C403.848 124.191 402.49 125.076 402.259 126.418L401.841 128.846ZM411.883 133.078L409.651 146.03C409.614 146.244 409.487 146.435 409.297 146.558C409.108 146.682 408.871 146.729 408.64 146.689L396.435 144.585C396.204 144.546 395.997 144.422 395.859 144.242C395.722 144.062 395.666 143.84 395.703 143.626L397.935 130.674C397.972 130.459 398.099 130.269 398.289 130.145C398.478 130.021 398.715 129.975 398.946 130.015L411.151 132.118C411.382 132.158 411.59 132.281 411.727 132.461C411.864 132.641 411.92 132.863 411.883 133.078ZM412.092 142.283L414.708 142.733C414.939 142.773 415.176 142.726 415.365 142.603C415.555 142.479 415.682 142.289 415.719 142.074L417.951 129.122C417.988 128.908 417.932 128.685 417.795 128.506C417.657 128.326 417.45 128.202 417.219 128.162L405.014 126.059C404.532 125.976 404.08 126.271 404.003 126.718L403.584 129.147L411.43 130.499C412.124 130.619 412.745 130.989 413.157 131.529C413.569 132.069 413.738 132.734 413.627 133.378L412.092 142.283Z" fill="#5EB0BF"/>
<path d="M39.0284 76.643C38.6737 76.5819 38.3556 76.4723 38.0744 76.3142C37.7978 76.1529 37.5543 75.9526 37.3438 75.7134C37.138 75.4709 36.9682 75.1961 36.8345 74.8889C36.7007 74.5817 36.5996 74.2497 36.5312 73.8929C36.4674 73.5329 36.437 73.1562 36.4398 72.763C36.4472 72.3665 36.4866 71.9613 36.558 71.5474C36.6293 71.1335 36.7275 70.7405 36.8525 70.3683C36.9782 69.9922 37.1291 69.6468 37.3051 69.3321C37.4857 69.0141 37.6885 68.7325 37.9134 68.4871C38.1423 68.2425 38.3939 68.0423 38.6684 67.8866C38.9435 67.727 39.2419 67.6202 39.5638 67.5661C39.8864 67.508 40.229 67.5102 40.5916 67.5727C40.9464 67.6339 41.2621 67.7451 41.5387 67.9064C41.8199 68.0645 42.0635 68.2647 42.2693 68.5072C42.4797 68.7464 42.6518 69.0196 42.7856 69.3268C42.9193 69.634 43.0181 69.9676 43.0819 70.3277C43.1503 70.6845 43.1808 71.0611 43.1733 71.4576C43.1705 71.8509 43.1334 72.2544 43.0621 72.6683C42.9907 73.0822 42.8922 73.4772 42.7665 73.8533C42.6415 74.2255 42.4887 74.5706 42.308 74.8885C42.132 75.2032 41.9296 75.4829 41.7007 75.7276C41.4758 75.9729 41.2258 76.1754 40.9507 76.335C40.6762 76.4906 40.3778 76.5975 40.0552 76.6556C39.7333 76.7097 39.3911 76.7055 39.0284 76.643ZM41.8006 72.6397C41.8482 72.3637 41.8869 72.0802 41.9168 71.789C41.9506 71.4986 41.9634 71.2126 41.955 70.9311C41.9514 70.6463 41.9229 70.3755 41.8698 70.1188C41.8173 69.8581 41.7295 69.6258 41.6063 69.4219C41.4877 69.2148 41.3273 69.039 41.1249 68.8945C40.9264 68.7507 40.6774 68.653 40.3778 68.6013C40.094 68.5524 39.8395 68.5573 39.6142 68.6159C39.389 68.6745 39.1892 68.774 39.0148 68.9144C38.8411 69.0509 38.688 69.2213 38.5553 69.4258C38.4233 69.6263 38.3107 69.8443 38.2173 70.0799C38.1239 70.3155 38.0453 70.5596 37.9815 70.8125C37.9176 71.0653 37.8649 71.3119 37.8235 71.5524C37.7753 71.8323 37.7339 72.1194 37.6994 72.4138C37.6688 72.7089 37.6554 72.9989 37.6591 73.2836C37.6674 73.5651 37.6978 73.8362 37.7503 74.0969C37.8034 74.3537 37.8913 74.586 38.0137 74.7938C38.1362 75.0016 38.2967 75.1774 38.4952 75.3212C38.6936 75.465 38.9426 75.5627 39.2422 75.6144C39.5221 75.6626 39.7727 75.6571 39.994 75.5978C40.2199 75.5353 40.42 75.4338 40.5944 75.2933C40.7734 75.1497 40.9289 74.9776 41.0609 74.7771C41.1935 74.5726 41.3065 74.3526 41.3999 74.1171C41.4979 73.8782 41.5788 73.6324 41.6427 73.3796C41.7065 73.1268 41.7592 72.8801 41.8006 72.6397ZM45.457 68.5147C45.5812 68.524 45.7229 68.5382 45.8819 68.5575C46.0409 68.5768 46.2036 68.5987 46.3698 68.6233C46.5367 68.644 46.701 68.6682 46.8626 68.6961C47.0249 68.72 47.1711 68.7432 47.3012 68.7656C47.9279 68.8736 48.4941 69.0503 48.9998 69.2958C49.5094 69.5419 49.9305 69.8661 50.263 70.2684C50.5955 70.6707 50.8269 71.1531 50.9573 71.7154C51.0877 72.2777 51.0894 72.9274 50.9623 73.6645C50.8632 74.2401 50.7186 74.7489 50.5288 75.1911C50.3396 75.6293 50.1159 76.0088 49.8577 76.3297C49.6034 76.6511 49.3162 76.9162 48.9961 77.1249C48.6806 77.3303 48.3431 77.4872 47.9834 77.5957C47.6284 77.701 47.2588 77.7611 46.8747 77.776C46.4912 77.7871 46.1024 77.7586 45.7082 77.6907L44.1058 77.4145L45.4204 69.787L45.457 68.5147ZM46.4012 70.8084L45.3923 76.6621L45.5106 76.6825C46.0191 76.7701 46.4708 76.7871 46.8656 76.7334C47.2605 76.6796 47.6046 76.5786 47.8981 76.4303C48.1962 76.2787 48.4497 76.0911 48.6588 75.8673C48.8685 75.6396 49.0421 75.3976 49.1796 75.1412C49.3211 74.8855 49.4307 74.6264 49.5085 74.3638C49.5901 74.1019 49.6507 73.8566 49.6901 73.6279C49.7478 73.2929 49.7867 72.9728 49.8068 72.6678C49.8269 72.3628 49.8154 72.0767 49.7721 71.8095C49.7289 71.5422 49.6497 71.2952 49.5345 71.0683C49.4194 70.8415 49.2558 70.6367 49.0437 70.4541C48.8317 70.2714 48.5646 70.1137 48.2424 69.9811C47.9249 69.8452 47.5414 69.7385 47.0921 69.6611C47.029 69.6502 46.9616 69.6406 46.89 69.6323C46.8184 69.624 46.7503 69.6184 46.6859 69.6154L46.4571 69.6004L46.4012 70.8084ZM53.809 73.6376L54.508 72.7961C54.6327 72.7324 54.7704 72.6871 54.9211 72.6603C55.0718 72.6335 55.2241 72.6212 55.378 72.6234C55.5326 72.6216 55.6854 72.6297 55.8366 72.6476C55.9916 72.6662 56.1382 72.6874 56.2761 72.7112C56.5718 72.7621 56.8217 72.8194 57.0259 72.883C57.2307 72.9427 57.4007 73.0044 57.5358 73.0683C57.6748 73.1329 57.784 73.1943 57.8632 73.2526C57.9432 73.307 58.0041 73.354 58.0459 73.3937L58.0512 75.1298L57.1439 75.0952L57.0296 73.9918C57.0001 73.9745 56.9529 73.9542 56.8879 73.9308C56.8229 73.9074 56.7481 73.8824 56.6634 73.8556C56.5787 73.8288 56.4878 73.803 56.3906 73.7781C56.2974 73.7539 56.2074 73.7344 56.1206 73.7194C55.8526 73.6732 55.5988 73.662 55.3593 73.6856C55.1205 73.7054 54.8973 73.7521 54.6898 73.826C54.4822 73.8998 54.2913 73.9947 54.1171 74.1108C53.9468 74.2276 53.7948 74.3556 53.6612 74.495L52.8969 78.9296L51.8326 78.7462L52.9535 72.2421L54.0382 72.3072L53.809 73.6376ZM62.1109 71.3849L66.2498 72.0982L65.1595 78.4249C65.0936 78.8073 64.9865 79.146 64.8382 79.4411C64.69 79.7362 64.4919 79.9903 64.2441 80.2033C63.9964 80.4163 63.6957 80.5593 63.3422 80.6323C62.9886 80.7054 62.5714 80.7004 62.0905 80.6175C61.783 80.5646 61.5132 80.4815 61.2811 80.3684C61.0535 80.2521 60.853 80.1201 60.6796 79.9725C60.5068 79.821 60.3554 79.663 60.2255 79.4985C60.0994 79.3347 59.9846 79.1769 59.8809 79.0251L60.6042 78.4314C60.6368 78.4776 60.6985 78.5552 60.7894 78.6642C60.8808 78.7692 60.9956 78.8804 61.1337 78.9975C61.2725 79.1107 61.4327 79.2175 61.6143 79.3178C61.7959 79.4181 61.9971 79.4873 62.2179 79.5253C62.7264 79.6129 63.1453 79.537 63.4748 79.2975C63.8082 79.0586 64.0286 78.6278 64.1359 78.005L64.8268 73.9961L65.1407 72.8812L62.0661 72.3513L62.1109 71.3849ZM73.2046 81.23C73.0124 81.3796 72.8022 81.5158 72.574 81.6389C72.3465 81.758 72.1027 81.8539 71.8425 81.9268C71.583 81.9957 71.3059 82.0373 71.0113 82.0515C70.7159 82.0696 70.4046 82.0504 70.0774 81.994C69.5098 81.8962 69.0342 81.6884 68.6506 81.3706C68.2716 81.0496 67.9785 80.6541 67.7713 80.1841C67.5681 79.7147 67.4461 79.1863 67.4053 78.5989C67.3644 78.0114 67.3991 77.3984 67.5091 76.7598C67.5777 76.3616 67.6696 75.9817 67.7847 75.62C67.9044 75.2551 68.0496 74.9188 68.2203 74.6114C68.391 74.3039 68.5901 74.0317 68.8177 73.7949C69.0498 73.5549 69.3126 73.3607 69.6061 73.2124C69.9002 73.0601 70.2259 72.96 70.5833 72.912C70.9452 72.8607 71.343 72.8724 71.7766 72.9472C72.2299 73.0253 72.6451 73.1719 73.022 73.3871C73.4036 73.599 73.7128 73.8653 73.9498 74.1863L73.3086 74.7272C73.1411 74.5685 72.9236 74.4173 72.6561 74.2738C72.3886 74.1303 72.0696 74.0266 71.699 73.9627C71.3797 73.9077 71.0927 73.9009 70.838 73.9422C70.5833 73.9836 70.3543 74.0638 70.1511 74.1831C69.9519 74.303 69.7771 74.4575 69.6267 74.6467C69.4771 74.832 69.3451 75.0447 69.2306 75.2847C69.1201 75.5255 69.0263 75.7873 68.9491 76.0703C68.8719 76.3533 68.8068 76.6486 68.7539 76.956C68.707 77.228 68.6725 77.5103 68.6505 77.8028C68.6332 78.092 68.6345 78.3784 68.6547 78.662C68.6748 78.9455 68.7213 79.2174 68.7942 79.4775C68.8671 79.7377 68.9707 79.9727 69.105 80.1825C69.2432 80.3931 69.4175 80.5713 69.6278 80.7171C69.842 80.8636 70.1009 80.963 70.4044 81.0153C70.5818 81.0459 70.7606 81.0564 70.9408 81.0469C71.1211 81.0374 71.2935 81.0143 71.4581 80.9777C71.6227 80.9412 71.7706 80.8956 71.9018 80.8411C72.0375 80.7833 72.1474 80.7231 72.2312 80.6604L72.5869 78.5969L70.7506 78.1586L70.8831 77.39L73.7804 77.8893L73.2046 81.23ZM77.4908 83.2717C77.1558 83.2139 76.8592 83.0979 76.6011 82.9235C76.3436 82.7452 76.1215 82.5263 75.9349 82.2668C75.7522 82.008 75.6016 81.7162 75.483 81.3913C75.3684 81.0672 75.2828 80.7277 75.2263 80.3729C75.1743 80.0149 75.1517 79.6518 75.1583 79.2836C75.1649 78.9153 75.1978 78.5598 75.2569 78.2168C75.318 77.862 75.4035 77.5074 75.5133 77.1529C75.6231 76.7984 75.7581 76.4625 75.9184 76.1451C76.0786 75.8277 76.2627 75.5367 76.4706 75.2722C76.6832 75.0044 76.9185 74.7811 77.1767 74.6023C77.4387 74.4243 77.7245 74.297 78.034 74.2204C78.3474 74.1445 78.6874 74.1382 79.054 74.2014C79.3891 74.2591 79.6853 74.3771 79.9428 74.5555C80.2009 74.7298 80.4214 74.9464 80.6041 75.2052C80.7907 75.4647 80.9413 75.7565 81.0559 76.0807C81.1745 76.4055 81.2597 76.747 81.3117 77.105C81.3683 77.4597 81.3932 77.8212 81.3866 78.1895C81.38 78.5577 81.3471 78.9133 81.288 79.2562C81.2268 79.611 81.1414 79.9656 81.0316 80.3201C80.9218 80.6746 80.7867 81.0106 80.6265 81.328C80.4663 81.6454 80.2799 81.938 80.0673 82.2057C79.8594 82.4703 79.6244 82.6916 79.3623 82.8697C79.1042 83.0484 78.8184 83.1757 78.505 83.2516C78.1915 83.3275 77.8535 83.3342 77.4908 83.2717ZM76.5247 78.1735C76.4853 78.4021 76.4497 78.6558 76.4179 78.9344C76.3868 79.2091 76.3708 79.4905 76.3698 79.7785C76.3696 80.0626 76.3884 80.3419 76.4264 80.6163C76.4682 80.8914 76.5385 81.143 76.6372 81.3711C76.7406 81.5959 76.8783 81.786 77.0504 81.9415C77.2264 82.0977 77.4484 82.1989 77.7165 82.2451C77.9569 82.2865 78.1737 82.2772 78.3667 82.2171C78.5643 82.1537 78.7418 82.0544 78.899 81.9192C79.0569 81.78 79.1953 81.613 79.3141 81.4184C79.4336 81.2198 79.5377 81.0043 79.6264 80.772C79.7191 80.5404 79.7974 80.2982 79.8612 80.0454C79.9251 79.7925 79.9781 79.5439 80.0202 79.2995C80.0596 79.0709 80.0949 78.8192 80.126 78.5445C80.1578 78.2659 80.1738 77.9845 80.174 77.7004C80.1743 77.4163 80.1535 77.1367 80.1116 76.8616C80.0743 76.5833 80.004 76.3317 79.9007 76.1068C79.8013 75.8827 79.6636 75.6926 79.4876 75.5364C79.3155 75.3809 79.0954 75.2801 78.8274 75.2339C78.5869 75.1924 78.3679 75.2034 78.1702 75.2667C77.9772 75.3268 77.8021 75.4245 77.6448 75.5598C77.4876 75.695 77.3492 75.862 77.2298 76.0606C77.1103 76.2591 77.0042 76.4743 76.9115 76.7059C76.8228 76.9382 76.7465 77.1807 76.6826 77.4336C76.6194 77.6825 76.5668 77.9291 76.5247 78.1735ZM86.3888 79.0089L88.6674 75.9617L89.8027 76.1573L86.3604 80.7636L85.7021 84.5833L84.4604 84.3693L85.1176 80.5555L83.4109 75.0557L84.6375 75.1454L85.7636 78.7855L85.977 80.3383L86.3888 79.0089ZM91.3771 85.5613L90.2536 85.3677L91.5682 77.7402L91.6048 76.4679L97.1924 77.4309L96.9111 78.3565L92.6243 77.6177L92.549 78.7616L92.2789 80.3285L95.9449 80.9603L95.7971 81.8176L92.1312 81.1858L91.3771 85.5613ZM99.2019 85.9357L100.172 86.1028C100.534 86.1653 100.874 86.1629 101.19 86.0956C101.506 86.0244 101.788 85.8983 102.034 85.7175C102.28 85.5367 102.487 85.3044 102.653 85.0206C102.82 84.7368 102.935 84.4116 102.998 84.045C103.065 83.6587 103.069 83.3164 103.011 83.0182C102.953 82.716 102.857 82.46 102.723 82.2502C102.589 82.0364 102.428 81.8684 102.237 81.7464C102.052 81.6211 101.863 81.5418 101.67 81.5085C101.476 81.4752 101.291 81.4696 101.112 81.4916C100.939 81.5104 100.774 81.545 100.62 81.5954C100.469 81.6465 100.33 81.7079 100.204 81.7796C100.078 81.8512 99.9707 81.922 99.8816 81.9918L99.2019 85.9357ZM97.465 89.6547L99.0954 80.1942L100.18 80.2594L100.001 81.3L100.692 80.6459C100.818 80.5986 100.99 80.5654 101.208 80.5462C101.431 80.5237 101.697 80.539 102.004 80.592C102.331 80.6484 102.641 80.781 102.934 80.9897C103.227 81.1985 103.473 81.4662 103.672 81.7928C103.876 82.1201 104.02 82.498 104.104 82.9266C104.193 83.3558 104.194 83.8188 104.108 84.3155C104.025 84.8003 103.853 85.2314 103.593 85.6088C103.338 85.9828 103.019 86.2911 102.636 86.5337C102.258 86.7729 101.834 86.9373 101.364 87.0268C100.894 87.1162 100.405 87.1171 99.8962 87.0295L99.0388 86.8818L98.5293 89.8382L97.465 89.6547ZM105.506 87.9963L105.677 87.003C105.908 86.7465 106.154 86.4966 106.415 86.2534C106.676 86.0103 106.938 85.7773 107.199 85.5545C107.466 85.3284 107.724 85.1151 107.973 84.9146C108.224 84.7102 108.455 84.5227 108.667 84.3522C108.913 84.151 109.147 83.9682 109.37 83.8037C109.598 83.636 109.802 83.4681 109.981 83.3001C110.16 83.1321 110.311 82.953 110.433 82.763C110.555 82.569 110.638 82.3479 110.681 82.0995C110.713 81.9103 110.709 81.7268 110.666 81.549C110.624 81.3673 110.549 81.2041 110.44 81.0595C110.336 80.9116 110.201 80.7869 110.036 80.6854C109.871 80.5799 109.682 80.5089 109.47 80.4722C109.229 80.4307 109.014 80.4282 108.826 80.4647C108.641 80.4979 108.473 80.5561 108.321 80.6394C108.172 80.7235 108.037 80.824 107.915 80.941C107.798 81.0548 107.687 81.1716 107.581 81.2913L106.809 80.7929C106.955 80.5543 107.126 80.3422 107.32 80.1565C107.519 79.9676 107.74 79.8149 107.983 79.6985C108.227 79.5782 108.495 79.4985 108.786 79.4593C109.077 79.4201 109.392 79.4298 109.731 79.4882C110.129 79.5568 110.471 79.6889 110.758 79.8845C111.045 80.0801 111.275 80.3125 111.448 80.5817C111.625 80.8477 111.744 81.1361 111.804 81.4468C111.868 81.7582 111.874 82.0637 111.823 82.3633C111.77 82.6668 111.663 82.9467 111.501 83.2029C111.344 83.4559 111.159 83.6919 110.947 83.9111C110.739 84.1269 110.52 84.3266 110.29 84.5101C110.059 84.6936 109.847 84.8661 109.653 85.0274C109.406 85.2326 109.16 85.4338 108.915 85.631C108.67 85.8282 108.434 86.0229 108.206 86.215C107.983 86.4038 107.772 86.5887 107.575 86.7698C107.378 86.9469 107.204 87.1199 107.053 87.2887L111.192 88.0021L111.029 88.9481L105.506 87.9963ZM115.936 89.8973C115.498 89.8218 115.111 89.6678 114.773 89.4351C114.44 89.1992 114.168 88.9087 113.955 88.5636C113.743 88.2145 113.598 87.8221 113.519 87.3863C113.444 86.9512 113.448 86.4932 113.53 86.0123C113.613 85.5354 113.76 85.1061 113.972 84.7245C114.184 84.339 114.446 84.0209 114.757 83.7701C115.069 83.5153 115.422 83.3368 115.817 83.2344C116.217 83.1288 116.642 83.1147 117.091 83.1921C117.529 83.2675 117.912 83.4209 118.242 83.6522C118.572 83.8796 118.839 84.1651 119.044 84.5089C119.253 84.8494 119.393 85.2368 119.465 85.6712C119.536 86.1017 119.531 86.5554 119.449 87.0324C119.366 87.5133 119.221 87.9468 119.012 88.333C118.807 88.7199 118.551 89.043 118.242 89.3024C117.938 89.5585 117.59 89.742 117.197 89.8529C116.806 89.9599 116.385 89.9747 115.936 89.8973ZM118.298 86.9984C118.353 86.6791 118.374 86.36 118.36 86.0409C118.346 85.7219 118.286 85.4296 118.182 85.164C118.078 84.8945 117.923 84.6648 117.716 84.4749C117.51 84.2851 117.241 84.1616 116.91 84.1045C116.594 84.0502 116.309 84.068 116.054 84.158C115.799 84.248 115.578 84.3885 115.391 84.5795C115.204 84.7705 115.049 84.9975 114.926 85.2605C114.808 85.5242 114.723 85.8019 114.673 86.0936C114.618 86.4129 114.6 86.7324 114.618 87.0521C114.64 87.3725 114.705 87.6658 114.813 87.9321C114.925 88.199 115.087 88.4278 115.297 88.6183C115.513 88.8056 115.786 88.9278 116.117 88.9848C116.429 89.0385 116.708 89.0197 116.955 88.9283C117.206 88.8376 117.421 88.6981 117.599 88.5097C117.783 88.318 117.931 88.092 118.045 87.8315C118.164 87.5678 118.248 87.2901 118.298 86.9984ZM122.518 81.7955L127.839 82.7126L127.676 83.6587L125.56 83.2938L124.357 90.271L126.592 90.6562L126.311 91.5818L120.989 90.6647L121.152 89.7187L123.257 90.0814L124.46 83.1043L122.237 82.7211L122.518 81.7955ZM134.372 91.997L134.091 92.9227L128.651 91.9852L128.944 90.8179L130.054 84.3729L130.091 83.1006L135.531 84.0381L135.368 84.9842L131.081 84.2454L131.005 85.3892L130.735 86.9561L134.49 87.6032L134.342 88.4605L130.588 87.8135L130.18 90.1786L129.938 91.2327L134.372 91.997ZM140.466 84.7852C140.825 84.847 141.149 84.9537 141.44 85.1052C141.73 85.2568 141.97 85.4442 142.159 85.6675C142.352 85.8915 142.488 86.1464 142.569 86.4323C142.65 86.7181 142.661 87.0266 142.604 87.3577C142.564 87.5903 142.493 87.7911 142.391 87.9602C142.293 88.13 142.172 88.2776 142.028 88.4031C141.886 88.5246 141.725 88.6309 141.547 88.722C141.374 88.8098 141.192 88.89 141 88.9626C141.27 89.143 141.504 89.3376 141.704 89.5465C141.908 89.7522 142.07 89.975 142.191 90.215C142.317 90.4518 142.398 90.7074 142.436 90.9819C142.478 91.257 142.472 91.5502 142.419 91.8616C142.343 92.2992 142.191 92.6627 141.963 92.9521C141.735 93.2375 141.459 93.4599 141.136 93.6192C140.816 93.7753 140.465 93.871 140.081 93.9064C139.702 93.9424 139.321 93.9275 138.938 93.8616C138.564 93.7971 138.213 93.6797 137.885 93.5096C137.558 93.3355 137.279 93.1169 137.048 92.8539C136.822 92.5877 136.656 92.279 136.55 91.9279C136.445 91.5729 136.429 91.1825 136.502 90.7568C136.557 90.4414 136.651 90.1634 136.786 89.9228C136.921 89.6822 137.085 89.473 137.278 89.2952C137.471 89.1174 137.689 88.9684 137.933 88.8481C138.178 88.7238 138.437 88.6223 138.71 88.5436C138.545 88.3974 138.392 88.2492 138.251 88.0992C138.115 87.9498 137.997 87.7956 137.899 87.6366C137.805 87.4743 137.736 87.3062 137.693 87.1324C137.654 86.9592 137.652 86.7741 137.685 86.577C137.751 86.1946 137.883 85.8784 138.08 85.6283C138.282 85.3749 138.517 85.1799 138.784 85.0432C139.052 84.9027 139.333 84.8132 139.628 84.7747C139.927 84.7369 140.206 84.7404 140.466 84.7852ZM139.63 89.25C139.363 89.3136 139.118 89.3932 138.895 89.4886C138.676 89.5808 138.481 89.6974 138.311 89.8385C138.145 89.9764 138.004 90.143 137.89 90.3383C137.779 90.5304 137.702 90.7565 137.657 91.0166C137.616 91.2532 137.627 91.4761 137.688 91.6856C137.753 91.8957 137.852 92.0853 137.986 92.2544C138.123 92.4202 138.29 92.5586 138.486 92.6695C138.682 92.7804 138.891 92.8549 139.112 92.8929C139.364 92.9364 139.608 92.944 139.844 92.9157C140.085 92.8842 140.302 92.816 140.494 92.7112C140.691 92.607 140.856 92.4649 140.988 92.2848C141.121 92.1047 141.209 91.8865 141.253 91.6303C141.299 91.3662 141.28 91.1215 141.197 90.8961C141.119 90.6675 140.999 90.4561 140.837 90.2618C140.681 90.0643 140.495 89.8821 140.28 89.7152C140.069 89.549 139.853 89.3939 139.63 89.25ZM140.038 88.328C140.429 88.2289 140.75 88.0834 141.002 87.8914C141.259 87.7001 141.415 87.4409 141.471 87.1137C141.505 86.9167 141.493 86.74 141.435 86.5838C141.38 86.4284 141.3 86.2947 141.193 86.183C141.087 86.0713 140.962 85.9828 140.819 85.9176C140.681 85.8491 140.544 85.8033 140.41 85.7802C140.233 85.7496 140.057 85.7477 139.882 85.7743C139.707 85.797 139.549 85.8468 139.405 85.9236C139.262 86.0004 139.14 86.099 139.038 86.2195C138.94 86.3406 138.877 86.48 138.85 86.6377C138.819 86.819 138.828 86.987 138.879 87.1419C138.934 87.2934 139.017 87.4376 139.127 87.5743C139.242 87.7078 139.378 87.8367 139.535 87.9612C139.692 88.0857 139.86 88.208 140.038 88.328ZM146.64 92.7961C146.595 93.0563 146.571 93.2775 146.568 93.4596C146.57 93.6385 146.589 93.7879 146.625 93.9077C146.666 94.0244 146.723 94.1135 146.798 94.175C146.877 94.2333 146.972 94.272 147.083 94.291C147.268 94.3229 147.455 94.3329 147.644 94.3207C147.832 94.3086 148.01 94.2886 148.178 94.2606C148.346 94.2286 148.495 94.1956 148.627 94.1614C148.759 94.1234 148.861 94.0963 148.933 94.0803L149.218 94.866C149.177 94.8915 149.08 94.9337 148.928 94.9927C148.781 95.0484 148.595 95.1016 148.371 95.1524C148.151 95.2038 147.906 95.2386 147.635 95.2568C147.363 95.279 147.085 95.2656 146.801 95.2167C146.446 95.1555 146.172 95.0413 145.978 94.8738C145.787 94.707 145.654 94.5015 145.578 94.2571C145.503 94.0127 145.473 93.7396 145.488 93.4379C145.504 93.1322 145.542 92.8098 145.6 92.4708L146.15 89.2779L144.43 88.9813L144.593 88.0353L146.313 88.3318L146.526 87.096L147.674 86.618L147.348 88.5102L150.21 89.0034L149.929 89.929L147.215 89.4613L146.64 92.7961ZM156.09 95.8921L155.464 96.4539C155.424 96.4714 155.368 96.4882 155.297 96.5042C155.229 96.521 155.146 96.533 155.047 96.5403C154.948 96.5516 154.833 96.5543 154.705 96.5483C154.575 96.5463 154.433 96.532 154.28 96.5055C154.039 96.4641 153.81 96.3839 153.591 96.265C153.372 96.1461 153.168 95.9953 152.98 95.8128C152.797 95.631 152.633 95.4242 152.491 95.1926C152.349 94.9571 152.232 94.7055 152.14 94.4381C152.052 94.1673 151.995 93.8855 151.969 93.5927C151.947 93.2967 151.962 92.9969 152.014 92.6934C152.094 92.2322 152.244 91.8095 152.464 91.4254C152.685 91.0412 152.957 90.7189 153.282 90.4583C153.607 90.1977 153.976 90.0116 154.389 89.9002C154.803 89.7847 155.242 89.7671 155.707 89.8473C155.853 89.8724 155.994 89.9028 156.13 89.9384C156.27 89.9746 156.397 90.025 156.512 90.0894L156.929 91.0258L157.094 90.068L158.138 90.3697L156.97 97.1458C156.903 97.5321 156.778 97.8838 156.593 98.2011C156.409 98.5184 156.175 98.7805 155.892 98.9874C155.608 99.1982 155.278 99.3463 154.902 99.4317C154.526 99.5171 154.113 99.5211 153.664 99.4436C153.352 99.3899 153.085 99.3033 152.862 99.1837C152.643 99.0648 152.459 98.9438 152.31 98.8206C152.225 98.7491 152.146 98.6747 152.074 98.5974C152.002 98.52 151.939 98.4382 151.885 98.3517L152.577 97.8012C152.625 97.854 152.677 97.9056 152.733 97.9559C152.793 98.0069 152.856 98.0562 152.92 98.1039C153.032 98.1841 153.165 98.2618 153.319 98.3369C153.472 98.4121 153.643 98.466 153.833 98.4986C154.077 98.5407 154.315 98.5289 154.545 98.463C154.775 98.4012 154.984 98.2971 155.171 98.1509C155.363 98.0053 155.524 97.822 155.656 97.6011C155.786 97.3842 155.875 97.1417 155.921 96.8736L156.09 95.8921ZM156.802 91.759C156.722 91.6113 156.619 91.4697 156.492 91.3342C156.386 91.2224 156.252 91.1142 156.091 91.0094C155.932 90.9007 155.739 90.8269 155.515 90.7882C155.278 90.7475 155.059 90.7482 154.857 90.7905C154.655 90.8328 154.47 90.9044 154.302 91.0054C154.138 91.1071 153.989 91.2335 153.853 91.3847C153.722 91.5326 153.607 91.6954 153.507 91.873C153.412 92.0474 153.332 92.2285 153.268 92.4162C153.203 92.6 153.156 92.7806 153.125 92.958C153.068 93.293 153.066 93.6113 153.119 93.9128C153.177 94.211 153.274 94.4772 153.408 94.7114C153.543 94.9416 153.709 95.1326 153.906 95.2843C154.103 95.4359 154.314 95.5311 154.538 95.5699C154.739 95.6045 154.922 95.6137 155.088 95.5976C155.253 95.5814 155.405 95.5487 155.543 95.4995C155.682 95.4463 155.807 95.3825 155.917 95.3082C156.032 95.2306 156.137 95.1493 156.233 95.0643L156.802 91.759ZM160.971 89.3967L161.223 88.4659L165.835 89.2608L165.692 90.0885C165.618 90.2381 165.508 90.3897 165.364 90.5434C165.224 90.6939 165.062 90.8446 164.878 90.9955C164.698 91.1431 164.503 91.2861 164.293 91.4243C164.086 91.5633 163.879 91.694 163.671 91.8164L162.815 92.1195C162.856 92.1184 162.906 92.1229 162.965 92.1331C163.029 92.1401 163.088 92.1483 163.144 92.1578C163.526 92.2237 163.873 92.3321 164.183 92.4831C164.498 92.6348 164.759 92.8279 164.966 93.0625C165.178 93.2938 165.328 93.5692 165.415 93.8886C165.506 94.2048 165.518 94.5619 165.449 94.9601C165.383 95.3424 165.252 95.6771 165.057 95.964C164.861 96.251 164.618 96.4953 164.328 96.6969C164.042 96.8952 163.718 97.0545 163.357 97.1749C162.996 97.2912 162.616 97.374 162.218 97.4231C161.824 97.4728 161.421 97.4907 161.009 97.4766C160.598 97.4625 160.199 97.4221 159.812 97.3555L159.975 96.4095C160.305 96.4541 160.631 96.4799 160.955 96.4869C161.278 96.4939 161.589 96.4805 161.887 96.4467C162.186 96.4089 162.466 96.3496 162.727 96.2688C162.989 96.1881 163.22 96.0818 163.422 95.9501C163.627 95.8151 163.797 95.6536 163.931 95.4656C164.066 95.2737 164.154 95.0535 164.197 94.8052C164.246 94.5214 164.226 94.2743 164.136 94.0641C164.051 93.8545 163.913 93.6765 163.723 93.5301C163.533 93.3837 163.3 93.2644 163.024 93.1721C162.752 93.0766 162.454 93.001 162.131 92.9453C162.005 92.9235 161.866 92.9037 161.715 92.8858C161.569 92.8646 161.436 92.8477 161.316 92.8352L161.474 91.9187C161.656 91.8283 161.854 91.7245 162.069 91.6074C162.284 91.4902 162.502 91.3674 162.723 91.2391C162.945 91.1068 163.161 90.9735 163.371 90.8392C163.585 90.7017 163.78 90.5709 163.956 90.4469C164.132 90.319 164.283 90.1988 164.408 90.0864C164.533 89.97 164.619 89.8712 164.666 89.7899L163.726 89.8715L160.971 89.3967ZM172.995 91.4445C172.968 91.4318 172.928 91.4208 172.872 91.4113C172.822 91.3985 172.775 91.3884 172.731 91.3809C172.448 91.332 172.164 91.3298 171.88 91.3742C171.597 91.4147 171.324 91.4954 171.059 91.6163C170.795 91.7372 170.543 91.8926 170.303 92.0826C170.067 92.2734 169.849 92.4915 169.648 92.737C169.452 92.9792 169.279 93.2456 169.127 93.536C168.976 93.8265 168.856 94.1326 168.768 94.4544L169.378 93.8472C169.487 93.8011 169.612 93.7616 169.751 93.7289C169.896 93.6928 170.044 93.6657 170.198 93.6475C170.351 93.6293 170.505 93.6212 170.659 93.6234C170.813 93.6216 170.957 93.6323 171.091 93.6554C171.434 93.7145 171.755 93.8185 172.054 93.9675C172.357 94.1171 172.614 94.3115 172.824 94.5507C173.039 94.7906 173.192 95.0788 173.284 95.4154C173.381 95.7487 173.392 96.1301 173.318 96.5598C173.245 96.9855 173.103 97.377 172.891 97.7342C172.684 98.0882 172.425 98.3866 172.115 98.6296C171.806 98.8685 171.456 99.0396 171.065 99.1426C170.674 99.2457 170.258 99.2592 169.816 99.1831C169.43 99.1165 169.097 98.9963 168.819 98.8225C168.545 98.6454 168.315 98.4353 168.13 98.1923C167.944 97.9493 167.8 97.6828 167.695 97.3929C167.595 97.1036 167.521 96.8129 167.474 96.5207C167.432 96.2252 167.414 95.938 167.422 95.6592C167.429 95.3805 167.452 95.1287 167.491 94.904C167.572 94.435 167.698 93.9858 167.869 93.5567C168.045 93.1283 168.257 92.7345 168.505 92.3756C168.758 92.0133 169.045 91.6913 169.366 91.4097C169.687 91.1241 170.035 90.8939 170.41 90.719C170.79 90.5409 171.192 90.4215 171.617 90.3607C172.046 90.2967 172.493 90.3047 172.958 90.3849C173.017 90.3951 173.082 90.4082 173.152 90.4244C173.223 90.4366 173.278 90.4501 173.316 90.4648L172.995 91.4445ZM168.686 95.25C168.667 95.3603 168.649 95.4608 168.634 95.5515C168.622 95.6429 168.613 95.7326 168.606 95.8206C168.598 95.9087 168.595 95.9995 168.595 96.0928C168.596 96.1823 168.601 96.2826 168.61 96.3938C168.627 96.628 168.666 96.8459 168.729 97.0474C168.796 97.2457 168.885 97.4235 168.996 97.5806C169.112 97.7344 169.252 97.8641 169.416 97.9696C169.585 98.0718 169.782 98.1422 170.007 98.181C170.318 98.2346 170.593 98.221 170.83 98.1401C171.071 98.0599 171.277 97.9351 171.448 97.7657C171.62 97.5924 171.759 97.387 171.865 97.1496C171.975 96.9128 172.052 96.6663 172.096 96.41C172.139 96.1617 172.139 95.9365 172.097 95.7344C172.059 95.5329 171.983 95.3596 171.87 95.2143C171.758 95.065 171.612 94.9426 171.434 94.8469C171.26 94.7519 171.058 94.6847 170.829 94.6453C170.617 94.6086 170.405 94.5985 170.195 94.6151C169.985 94.6317 169.784 94.6681 169.592 94.7243C169.404 94.7811 169.231 94.8548 169.073 94.9453C168.919 95.0365 168.79 95.1381 168.686 95.25ZM173.835 99.7722L177.951 92.5665L178.361 91.4196L179.434 91.4827L181.126 101.029L179.943 100.825L179.526 98.0133L176.363 97.4681L174.923 99.9597L173.835 99.7722ZM178.886 92.1189L178.294 93.9652L176.806 96.6311L179.39 97.0764L178.826 94.0569L178.886 92.1189ZM182.419 101.252L182.59 100.258C182.821 100.002 183.067 99.7519 183.328 99.5087C183.59 99.2655 183.851 99.0325 184.113 98.8097C184.379 98.5837 184.637 98.3704 184.886 98.1699C185.137 97.9654 185.368 97.778 185.58 97.6075C185.826 97.4063 186.06 97.2235 186.283 97.059C186.511 96.8913 186.715 96.7234 186.894 96.5554C187.073 96.3873 187.224 96.2083 187.346 96.0183C187.468 95.8243 187.551 95.6031 187.594 95.3548C187.626 95.1656 187.622 94.9821 187.579 94.8043C187.537 94.6226 187.462 94.4594 187.353 94.3148C187.249 94.1669 187.114 94.0422 186.949 93.9407C186.784 93.8352 186.596 93.7641 186.383 93.7275C186.142 93.686 185.928 93.6835 185.739 93.72C185.554 93.7531 185.386 93.8114 185.234 93.8947C185.085 93.9787 184.95 94.0793 184.828 94.1963C184.711 94.3101 184.6 94.4269 184.494 94.5466L183.722 94.0482C183.868 93.8096 184.039 93.5975 184.233 93.4118C184.432 93.2228 184.653 93.0702 184.896 92.9538C185.14 92.8335 185.408 92.7538 185.699 92.7146C185.99 92.6754 186.305 92.6851 186.644 92.7435C187.042 92.8121 187.384 92.9442 187.671 93.1398C187.958 93.3353 188.188 93.5678 188.361 93.837C188.538 94.103 188.657 94.3914 188.717 94.7021C188.781 95.0135 188.787 95.319 188.736 95.6186C188.683 95.9221 188.576 96.202 188.414 96.4582C188.257 96.7112 188.072 96.9472 187.86 97.1663C187.652 97.3822 187.433 97.5819 187.203 97.7654C186.972 97.9489 186.76 98.1214 186.566 98.2827C186.319 98.4878 186.074 98.689 185.828 98.8863C185.583 99.0835 185.347 99.2782 185.119 99.4703C184.896 99.6591 184.685 99.844 184.488 100.025C184.291 100.202 184.117 100.375 183.966 100.544L188.105 101.257L187.942 102.203L182.419 101.252ZM191.592 93.6998C191.716 93.709 191.858 93.7232 192.017 93.7425C192.176 93.7618 192.338 93.7838 192.505 93.8084C192.671 93.829 192.836 93.8533 192.997 93.8811C193.16 93.905 193.306 93.9282 193.436 93.9506C194.063 94.0586 194.629 94.2354 195.135 94.4808C195.644 94.7269 196.065 95.0511 196.398 95.4535C196.73 95.8558 196.962 96.3381 197.092 96.9004C197.222 97.4627 197.224 98.1124 197.097 98.8496C196.998 99.4251 196.853 99.9339 196.664 100.376C196.474 100.814 196.251 101.194 195.992 101.515C195.738 101.836 195.451 102.101 195.131 102.31C194.815 102.515 194.478 102.672 194.118 102.781C193.763 102.886 193.394 102.946 193.009 102.961C192.626 102.972 192.237 102.944 191.843 102.876L190.241 102.6L191.555 94.972L191.592 93.6998ZM192.536 95.9934L191.527 101.847L191.645 101.868C192.154 101.955 192.605 101.972 193 101.918C193.395 101.865 193.739 101.764 194.033 101.615C194.331 101.464 194.584 101.276 194.793 101.052C195.003 100.825 195.177 100.583 195.314 100.326C195.456 100.071 195.565 99.8114 195.643 99.5488C195.725 99.2869 195.785 99.0416 195.825 98.813C195.883 98.4779 195.921 98.1579 195.942 97.8529C195.962 97.5478 195.95 97.2617 195.907 96.9945C195.864 96.7273 195.784 96.4802 195.669 96.2534C195.554 96.0265 195.391 95.8218 195.178 95.6391C194.966 95.4564 194.699 95.2988 194.377 95.1661C194.06 95.0302 193.676 94.9235 193.227 94.8461C193.164 94.8352 193.096 94.8257 193.025 94.8174C192.953 94.8091 192.885 94.8034 192.821 94.8005L192.592 94.7854L192.536 95.9934ZM201.997 95.3894C202.355 95.4513 202.68 95.5579 202.97 95.7095C203.261 95.861 203.501 96.0484 203.689 96.2717C203.882 96.4957 204.019 96.7507 204.099 97.0365C204.18 97.3223 204.192 97.6308 204.135 97.9619C204.095 98.1945 204.024 98.3954 203.921 98.5645C203.823 98.7342 203.702 98.8819 203.559 99.0073C203.416 99.1289 203.256 99.2352 203.078 99.3262C202.904 99.4141 202.722 99.4943 202.531 99.5669C202.8 99.7472 203.035 99.9418 203.234 100.151C203.438 100.356 203.6 100.579 203.721 100.819C203.847 101.056 203.929 101.312 203.967 101.586C204.009 101.861 204.003 102.154 203.949 102.466C203.874 102.903 203.722 103.267 203.493 103.556C203.266 103.842 202.99 104.064 202.666 104.223C202.347 104.38 201.995 104.475 201.612 104.511C201.232 104.547 200.851 104.532 200.469 104.466C200.094 104.401 199.743 104.284 199.415 104.114C199.088 103.94 198.809 103.721 198.579 103.458C198.353 103.192 198.187 102.883 198.081 102.532C197.975 102.177 197.959 101.787 198.033 101.361C198.087 101.046 198.182 100.768 198.317 100.527C198.451 100.286 198.615 100.077 198.808 99.8995C199.001 99.7217 199.22 99.5726 199.464 99.4523C199.708 99.328 199.967 99.2266 200.241 99.1478C200.075 99.0016 199.922 98.8534 199.782 98.7034C199.645 98.554 199.527 98.3998 199.429 98.2408C199.335 98.0785 199.267 97.9104 199.224 97.7366C199.185 97.5634 199.182 97.3783 199.216 97.1812C199.282 96.7988 199.413 96.4826 199.611 96.2325C199.813 95.9791 200.047 95.7841 200.314 95.6475C200.582 95.5069 200.863 95.4174 201.158 95.3789C201.457 95.3411 201.736 95.3446 201.997 95.3894ZM201.16 99.8542C200.893 99.9179 200.648 99.9974 200.425 100.093C200.206 100.185 200.011 100.302 199.841 100.443C199.675 100.581 199.535 100.747 199.42 100.943C199.31 101.135 199.232 101.361 199.187 101.621C199.147 101.857 199.157 102.08 199.218 102.29C199.284 102.5 199.383 102.69 199.516 102.859C199.654 103.024 199.821 103.163 200.017 103.274C200.213 103.385 200.421 103.459 200.642 103.497C200.894 103.541 201.138 103.548 201.375 103.52C201.616 103.488 201.832 103.42 202.025 103.315C202.221 103.211 202.386 103.069 202.518 102.889C202.651 102.709 202.739 102.491 202.783 102.235C202.829 101.97 202.81 101.726 202.727 101.5C202.649 101.272 202.529 101.06 202.368 100.866C202.211 100.669 202.025 100.486 201.811 100.319C201.6 100.153 201.383 99.9982 201.16 99.8542ZM201.569 98.9322C201.959 98.8331 202.281 98.6876 202.533 98.4956C202.789 98.3044 202.945 98.0451 203.002 97.718C203.036 97.5209 203.024 97.3442 202.965 97.1881C202.911 97.0326 202.83 96.899 202.724 96.7872C202.617 96.6755 202.492 96.587 202.349 96.5218C202.211 96.4533 202.075 96.4075 201.941 96.3844C201.763 96.3538 201.587 96.3519 201.412 96.3785C201.238 96.4013 201.079 96.451 200.936 96.5278C200.793 96.6046 200.67 96.7032 200.568 96.8237C200.47 96.9448 200.408 97.0842 200.381 97.2419C200.349 97.4232 200.359 97.5913 200.409 97.7461C200.464 97.8976 200.547 98.0418 200.657 98.1785C200.772 98.312 200.909 98.441 201.066 98.5655C201.223 98.69 201.39 98.8122 201.569 98.9322ZM211.434 104.425L210.369 104.242L210.064 106.016L208.822 105.802L209.128 104.028L205.61 103.422L205.784 102.411L209.715 96.7013L210.812 97.0122L207.441 101.911L206.748 102.644L209.291 103.082L209.706 100.675L210.93 100.99L210.532 103.296L211.685 103.495L211.434 104.425ZM218.707 102.032C218.638 101.984 218.554 101.928 218.455 101.867C218.361 101.802 218.251 101.74 218.128 101.682C218.004 101.621 217.866 101.564 217.712 101.514C217.563 101.459 217.4 101.417 217.223 101.387C216.982 101.345 216.746 101.316 216.513 101.301C216.28 101.285 216.07 101.293 215.881 101.326C215.693 101.358 215.535 101.418 215.406 101.506C215.281 101.594 215.204 101.723 215.175 101.892C215.151 102.034 215.183 102.165 215.272 102.286C215.361 102.403 215.484 102.514 215.641 102.618C215.802 102.719 215.986 102.815 216.193 102.908C216.401 102.996 216.612 103.083 216.824 103.169C217.037 103.254 217.241 103.338 217.438 103.421C217.636 103.499 217.805 103.579 217.945 103.66C218.107 103.757 218.254 103.87 218.386 103.998C218.522 104.127 218.635 104.27 218.726 104.428C218.817 104.582 218.88 104.747 218.915 104.923C218.954 105.096 218.957 105.278 218.924 105.467C218.88 105.723 218.791 105.945 218.657 106.133C218.524 106.317 218.359 106.473 218.163 106.602C217.97 106.727 217.754 106.828 217.514 106.904C217.274 106.976 217.024 107.029 216.762 107.061C216.506 107.09 216.246 107.098 215.985 107.085C215.726 107.077 215.481 107.053 215.248 107.013C215.114 106.99 214.949 106.947 214.753 106.885C214.56 106.827 214.363 106.759 214.161 106.679C213.964 106.597 213.779 106.508 213.604 106.413C213.43 106.318 213.298 106.226 213.207 106.138L213.742 105.365C213.829 105.429 213.945 105.498 214.09 105.571C214.236 105.645 214.39 105.716 214.553 105.785C214.716 105.854 214.874 105.913 215.027 105.964C215.185 106.016 215.317 106.051 215.423 106.069C215.545 106.09 215.682 106.108 215.834 106.122C215.991 106.132 216.151 106.135 216.314 106.131C216.481 106.123 216.645 106.105 216.804 106.076C216.968 106.043 217.117 105.993 217.25 105.927C217.383 105.861 217.495 105.775 217.587 105.669C217.682 105.563 217.743 105.432 217.77 105.274C217.797 105.12 217.768 104.981 217.684 104.857C217.6 104.733 217.479 104.619 217.323 104.515C217.166 104.411 216.986 104.315 216.782 104.227C216.582 104.136 216.376 104.047 216.164 103.962C215.951 103.877 215.747 103.793 215.55 103.71C215.354 103.624 215.185 103.53 215.044 103.428C214.838 103.283 214.67 103.136 214.542 102.988C214.418 102.837 214.322 102.685 214.255 102.531C214.192 102.378 214.156 102.224 214.146 102.068C214.137 101.912 214.145 101.755 214.172 101.598C214.221 101.318 214.341 101.089 214.534 100.911C214.731 100.734 214.975 100.603 215.265 100.52C215.557 100.432 215.881 100.386 216.239 100.383C216.597 100.376 216.966 100.405 217.344 100.47C217.549 100.505 217.746 100.551 217.935 100.608C218.128 100.666 218.306 100.729 218.469 100.798C218.635 100.867 218.781 100.939 218.907 101.013C219.032 101.083 219.13 101.151 219.2 101.216L218.707 102.032ZM226.039 107.984C225.895 108.089 225.741 108.182 225.577 108.263C225.413 108.345 225.235 108.409 225.044 108.458C224.854 108.502 224.647 108.525 224.423 108.527C224.203 108.534 223.961 108.514 223.697 108.469C223.172 108.379 222.735 108.208 222.384 107.957C222.034 107.705 221.761 107.403 221.567 107.049C221.372 106.694 221.25 106.306 221.201 105.884C221.152 105.461 221.166 105.031 221.241 104.594C221.289 104.314 221.364 104.043 221.466 103.78C221.573 103.514 221.701 103.266 221.85 103.036C222.004 102.807 222.179 102.6 222.378 102.415C222.58 102.231 222.801 102.08 223.04 101.963C223.283 101.847 223.542 101.767 223.818 101.726C224.097 101.68 224.393 101.685 224.704 101.738C225.13 101.812 225.502 101.947 225.822 102.144C226.141 102.341 226.399 102.584 226.597 102.874C226.795 103.164 226.928 103.496 226.998 103.869C227.068 104.238 227.067 104.632 226.995 105.049C226.974 105.172 226.947 105.305 226.914 105.45C226.881 105.594 226.845 105.73 226.807 105.857L222.314 105.083C222.261 105.386 222.26 105.676 222.31 105.953C222.36 106.225 222.45 106.47 222.579 106.687C222.713 106.901 222.881 107.08 223.083 107.225C223.289 107.37 223.523 107.465 223.783 107.51C224.035 107.553 224.253 107.572 224.436 107.567C224.624 107.559 224.784 107.538 224.916 107.504C225.052 107.471 225.166 107.429 225.26 107.381C225.354 107.332 225.435 107.285 225.504 107.24L226.039 107.984ZM225.967 104.799L226.012 104.539C226.05 104.314 226.041 104.1 225.983 103.895C225.928 103.691 225.836 103.506 225.707 103.342C225.581 103.174 225.425 103.033 225.237 102.92C225.054 102.807 224.852 102.732 224.631 102.694C224.367 102.648 224.127 102.651 223.911 102.704C223.699 102.752 223.511 102.832 223.346 102.941C223.182 103.047 223.043 103.171 222.929 103.314C222.815 103.456 222.726 103.595 222.662 103.73L222.197 104.344L223.324 104.344L225.967 104.799ZM229.046 109.287L227.993 109.106L229.114 102.602L230.187 102.665L230.001 103.747C230.111 103.604 230.195 103.492 230.253 103.413C230.316 103.331 230.361 103.271 230.387 103.235C230.418 103.196 230.437 103.173 230.442 103.165L230.457 103.15C230.498 103.12 230.555 103.088 230.626 103.051C230.701 103.015 230.789 102.986 230.891 102.963C230.993 102.936 231.107 102.919 231.234 102.912C231.362 102.902 231.503 102.91 231.656 102.936C231.877 102.974 232.053 103.035 232.185 103.119C232.318 103.199 232.42 103.297 232.493 103.416C232.567 103.53 232.617 103.662 232.644 103.813C232.671 103.964 232.692 104.126 232.706 104.299L233.201 103.653C233.247 103.625 233.317 103.592 233.413 103.556C233.512 103.52 233.623 103.49 233.745 103.467C233.871 103.44 234.002 103.422 234.138 103.413C234.273 103.404 234.404 103.41 234.53 103.432C234.83 103.483 235.057 103.575 235.213 103.708C235.374 103.837 235.481 104.003 235.535 104.208C235.593 104.412 235.611 104.651 235.588 104.923C235.57 105.196 235.532 105.498 235.475 105.829L234.71 110.264L233.658 110.082L234.412 105.707C234.449 105.494 234.477 105.308 234.496 105.149C234.52 104.987 234.519 104.848 234.494 104.735C234.474 104.617 234.423 104.525 234.341 104.458C234.264 104.388 234.144 104.339 233.983 104.311C233.904 104.298 233.803 104.307 233.68 104.338C233.557 104.366 233.432 104.409 233.304 104.469C233.181 104.524 233.062 104.593 232.946 104.675C232.835 104.753 232.751 104.838 232.695 104.93C232.691 104.953 232.684 104.993 232.675 105.048C232.67 105.1 232.662 105.155 232.652 105.215C232.646 105.27 232.639 105.324 232.63 105.375L231.872 109.774L230.814 109.592L231.548 105.335C231.584 105.122 231.614 104.928 231.636 104.753C231.658 104.578 231.657 104.428 231.634 104.302C231.616 104.173 231.565 104.067 231.482 103.984C231.403 103.901 231.279 103.845 231.109 103.816C231.046 103.805 230.962 103.809 230.858 103.828C230.753 103.846 230.641 103.882 230.523 103.934C230.408 103.984 230.294 104.049 230.178 104.131C230.067 104.209 229.97 104.304 229.886 104.415L229.046 109.287ZM240.215 105.519L242.493 102.472L243.629 102.668L240.186 107.274L239.528 111.094L238.286 110.88L238.944 107.066L237.237 101.566L238.464 101.656L239.59 105.296L239.803 106.849L240.215 105.519ZM248.144 103.343C248.503 103.404 248.828 103.511 249.118 103.663C249.409 103.814 249.648 104.002 249.837 104.225C250.03 104.449 250.167 104.704 250.247 104.99C250.328 105.276 250.34 105.584 250.283 105.915C250.242 106.148 250.171 106.349 250.069 106.518C249.971 106.687 249.85 106.835 249.707 106.96C249.564 107.082 249.404 107.188 249.225 107.279C249.052 107.367 248.87 107.447 248.679 107.52C248.948 107.7 249.182 107.895 249.382 108.104C249.586 108.31 249.748 108.532 249.869 108.772C249.995 109.009 250.077 109.265 250.115 109.539C250.156 109.814 250.151 110.108 250.097 110.419C250.022 110.857 249.87 111.22 249.641 111.509C249.413 111.795 249.138 112.017 248.814 112.177C248.495 112.333 248.143 112.428 247.76 112.464C247.38 112.5 246.999 112.485 246.617 112.419C246.242 112.354 245.891 112.237 245.563 112.067C245.236 111.893 244.957 111.674 244.726 111.411C244.5 111.145 244.334 110.836 244.228 110.485C244.123 110.13 244.107 109.74 244.181 109.314C244.235 108.999 244.33 108.721 244.464 108.48C244.599 108.24 244.763 108.03 244.956 107.853C245.149 107.675 245.368 107.526 245.612 107.405C245.856 107.281 246.115 107.18 246.389 107.101C246.223 106.955 246.07 106.807 245.929 106.657C245.793 106.507 245.675 106.353 245.577 106.194C245.483 106.032 245.415 105.864 245.371 105.69C245.332 105.517 245.33 105.331 245.364 105.134C245.43 104.752 245.561 104.436 245.759 104.186C245.961 103.932 246.195 103.737 246.462 103.601C246.73 103.46 247.011 103.371 247.306 103.332C247.605 103.294 247.884 103.298 248.144 103.343ZM247.308 107.807C247.041 107.871 246.796 107.951 246.573 108.046C246.354 108.138 246.159 108.255 245.989 108.396C245.823 108.534 245.683 108.7 245.568 108.896C245.458 109.088 245.38 109.314 245.335 109.574C245.295 109.811 245.305 110.034 245.366 110.243C245.431 110.453 245.531 110.643 245.664 110.812C245.802 110.978 245.969 111.116 246.165 111.227C246.361 111.338 246.569 111.412 246.79 111.45C247.042 111.494 247.286 111.501 247.523 111.473C247.763 111.442 247.98 111.373 248.173 111.269C248.369 111.164 248.534 111.022 248.666 110.842C248.799 110.662 248.887 110.444 248.931 110.188C248.977 109.924 248.958 109.679 248.875 109.453C248.797 109.225 248.677 109.013 248.516 108.819C248.359 108.622 248.173 108.44 247.958 108.273C247.748 108.106 247.531 107.951 247.308 107.807ZM247.716 106.885C248.107 106.786 248.428 106.641 248.681 106.449C248.937 106.258 249.093 105.998 249.15 105.671C249.184 105.474 249.171 105.297 249.113 105.141C249.059 104.986 248.978 104.852 248.872 104.74C248.765 104.629 248.64 104.54 248.497 104.475C248.359 104.406 248.223 104.361 248.089 104.338C247.911 104.307 247.735 104.305 247.56 104.332C247.386 104.354 247.227 104.404 247.084 104.481C246.941 104.558 246.818 104.656 246.716 104.777C246.618 104.898 246.555 105.037 246.528 105.195C246.497 105.376 246.507 105.544 246.557 105.699C246.612 105.851 246.695 105.995 246.805 106.132C246.92 106.265 247.056 106.394 247.213 106.519C247.371 106.643 247.538 106.765 247.716 106.885ZM252.12 113.264L251.067 113.083L252.188 106.578L253.261 106.642L253.075 107.724C253.185 107.58 253.269 107.469 253.327 107.39C253.39 107.307 253.435 107.248 253.461 107.212C253.492 107.173 253.511 107.149 253.516 107.142L253.531 107.126C253.572 107.097 253.629 107.064 253.7 107.028C253.775 106.992 253.863 106.962 253.965 106.939C254.067 106.912 254.181 106.896 254.308 106.889C254.436 106.879 254.577 106.887 254.73 106.913C254.951 106.951 255.127 107.012 255.259 107.095C255.391 107.175 255.494 107.274 255.567 107.392C255.641 107.506 255.691 107.639 255.718 107.789C255.745 107.94 255.765 108.102 255.78 108.275L256.275 107.63C256.321 107.601 256.391 107.569 256.487 107.532C256.586 107.497 256.697 107.467 256.819 107.443C256.945 107.416 257.076 107.398 257.212 107.389C257.347 107.38 257.478 107.387 257.604 107.408C257.904 107.46 258.131 107.552 258.287 107.684C258.447 107.813 258.555 107.98 258.609 108.184C258.667 108.389 258.685 108.628 258.662 108.9C258.644 109.172 258.606 109.474 258.549 109.806L257.784 114.24L256.732 114.059L257.486 109.683C257.523 109.47 257.551 109.284 257.57 109.125C257.594 108.963 257.593 108.825 257.568 108.711C257.548 108.594 257.497 108.502 257.415 108.435C257.338 108.365 257.218 108.316 257.057 108.288C256.978 108.274 256.877 108.283 256.754 108.315C256.631 108.343 256.506 108.386 256.378 108.445C256.255 108.501 256.135 108.57 256.02 108.651C255.909 108.73 255.825 108.815 255.769 108.906C255.765 108.93 255.758 108.969 255.749 109.025C255.744 109.077 255.736 109.132 255.726 109.191C255.72 109.247 255.713 109.301 255.704 109.352L254.946 113.751L253.888 113.569L254.621 109.311C254.658 109.099 254.688 108.905 254.71 108.73C254.732 108.555 254.731 108.405 254.708 108.279C254.69 108.15 254.639 108.044 254.556 107.961C254.477 107.878 254.353 107.822 254.183 107.793C254.12 107.782 254.036 107.786 253.931 107.804C253.827 107.823 253.715 107.858 253.596 107.911C253.482 107.96 253.368 108.026 253.252 108.107C253.141 108.186 253.044 108.28 252.96 108.392L252.12 113.264ZM263.888 106.159L265.083 106.365L264.879 107.548L263.684 107.342L263.888 106.159ZM263.63 109.281L262.762 109.375L261.573 109.17L261.618 108.204L264.639 108.724L263.42 115.802C263.359 116.153 263.279 116.476 263.18 116.771C263.084 117.067 262.95 117.314 262.778 117.512C262.605 117.713 262.388 117.857 262.126 117.941C261.867 118.027 261.545 118.036 261.159 117.969C260.899 117.925 260.662 117.861 260.449 117.78C260.235 117.703 260.049 117.624 259.892 117.544C259.735 117.468 259.609 117.398 259.515 117.333C259.421 117.268 259.363 117.228 259.341 117.212L259.728 116.341C259.751 116.353 259.806 116.385 259.895 116.436C259.987 116.489 260.103 116.547 260.242 116.612C260.38 116.68 260.537 116.746 260.713 116.809C260.889 116.872 261.076 116.92 261.273 116.954C261.419 116.979 261.547 116.965 261.658 116.911C261.768 116.857 261.864 116.772 261.945 116.656C262.026 116.54 262.093 116.397 262.147 116.228C262.204 116.059 262.251 115.872 262.286 115.667L263.333 109.595L263.63 109.281ZM269.638 110.304C269.669 110.293 269.72 110.276 269.794 110.252C269.871 110.229 269.963 110.208 270.072 110.19C270.181 110.172 270.302 110.163 270.436 110.162C270.575 110.157 270.725 110.169 270.887 110.197C271.297 110.267 271.65 110.395 271.947 110.58C272.249 110.762 272.49 110.984 272.672 111.247C272.859 111.507 272.984 111.796 273.046 112.115C273.113 112.435 273.117 112.765 273.059 113.104C272.99 113.502 272.856 113.858 272.655 114.173C272.456 114.483 272.208 114.753 271.913 114.982C271.622 115.208 271.294 115.395 270.927 115.543C270.565 115.692 270.184 115.805 269.785 115.882C269.391 115.956 268.99 115.995 268.584 115.998C268.178 115.997 267.786 115.964 267.408 115.899L267.571 114.953C267.868 114.996 268.174 115.012 268.488 115.001C268.802 114.99 269.109 114.954 269.408 114.892C269.711 114.83 269.998 114.744 270.269 114.632C270.543 114.521 270.788 114.387 271.002 114.229C271.22 114.071 271.401 113.892 271.545 113.689C271.69 113.487 271.783 113.263 271.825 113.019C271.86 112.818 271.86 112.617 271.825 112.416C271.795 112.216 271.727 112.032 271.622 111.864C271.522 111.692 271.383 111.545 271.206 111.421C271.028 111.297 270.811 111.213 270.555 111.168C270.354 111.134 270.17 111.116 270.004 111.116C269.838 111.112 269.689 111.119 269.556 111.136C269.423 111.154 269.305 111.178 269.202 111.209C269.104 111.237 269.022 111.266 268.956 111.295L268.223 111.168L268.936 107.029L273.389 107.797L273.226 108.743L270.003 108.187L269.638 110.304ZM278.214 115.545L280.554 111.467L281.639 111.532L278.091 117.843C277.916 118.154 277.731 118.461 277.537 118.765C277.347 119.069 277.142 119.336 276.924 119.566C276.71 119.797 276.48 119.973 276.236 120.093C275.996 120.218 275.737 120.257 275.461 120.209C275.241 120.171 275.045 120.093 274.875 119.974C274.705 119.855 274.549 119.711 274.408 119.54L274.959 118.923C274.978 118.951 275.003 118.983 275.033 119.021C275.067 119.059 275.103 119.096 275.142 119.131C275.184 119.171 275.229 119.205 275.276 119.234C275.328 119.263 275.382 119.282 275.437 119.292C275.579 119.316 275.716 119.287 275.848 119.204C275.983 119.126 276.114 119.015 276.24 118.87C276.371 118.726 276.494 118.563 276.611 118.38C276.732 118.198 276.848 118.015 276.961 117.831L275.723 110.634L276.867 110.71L277.658 115.449L277.729 116.874L278.214 115.545Z" fill="white"/>
</svg>
