<svg width="30" height="32" viewBox="0 0 30 32" fill="none" xmlns="http://www.w3.org/2000/svg">
<path fill-rule="evenodd" clip-rule="evenodd" d="M6.81818 6.80556H3.40909C2.50425 6.80556 1.63778 7.16427 0.998582 7.80229C0.359382 8.44031 0 9.30517 0 10.2083V28.3565C0 29.2596 0.359375 30.1245 0.998582 30.7625C1.63778 31.4005 2.50425 31.7593 3.40909 31.7593H19.3182C20.223 31.7593 21.0895 31.4006 21.7287 30.7625C22.3679 30.1245 22.7273 29.2596 22.7273 28.3565V24.9537H26.1364C27.0412 24.9537 27.9077 24.595 28.5469 23.957C29.1861 23.319 29.5455 22.4541 29.5455 21.5509V3.40278C29.5455 2.49962 29.1861 1.63475 28.5469 0.996733C27.9077 0.358717 27.0412 0 26.1364 0H10.2273C8.34375 0 6.81818 1.52274 6.81818 3.40278V6.80556ZM20.4545 10.2083V28.3565C20.4545 28.6571 20.3352 28.9463 20.1222 29.159C19.9091 29.3716 19.6193 29.4907 19.3182 29.4907H3.40911C3.10797 29.4907 2.8182 29.3716 2.60514 29.159C2.39207 28.9463 2.27276 28.6571 2.27276 28.3565V10.2083C2.27276 9.90776 2.39207 9.61852 2.60514 9.40586C2.81821 9.19319 3.10798 9.07409 3.40911 9.07409H19.3182C19.6193 9.07409 19.9091 9.19319 20.1222 9.40586C20.3352 9.61853 20.4545 9.90776 20.4545 10.2083ZM22.7273 22.6852H26.1364C26.4375 22.6852 26.7273 22.5661 26.9403 22.3534C27.1534 22.1407 27.2727 21.8515 27.2727 21.5509V3.40279C27.2727 3.10222 27.1534 2.81298 26.9403 2.60032C26.7273 2.38764 26.4375 2.26855 26.1364 2.26855H10.2273C9.59942 2.26855 9.09091 2.77612 9.09091 3.40281V6.80559H19.3182C20.223 6.80559 21.0895 7.16429 21.7287 7.80232C22.3679 8.44033 22.7273 9.3052 22.7273 10.2084V22.6852Z" fill="white"/>
</svg>
