<svg width="889" height="174" viewBox="0 0 889 174" fill="none" xmlns="http://www.w3.org/2000/svg">
<path d="M39.457 47.3181L64.449 36.5644L64.4491 36.5642C64.5297 36.3567 64.6103 36.1491 64.8786 35.564C65.0575 26.8644 65.1415 18.5411 65.0065 10.2213C64.917 4.71162 60.8579 0.640981 55.3547 0.62177C36.9286 0.557445 18.5021 0.629931 0.0755737 0.650028C0.0504216 4.22088 0.00368042 7.79172 0.00331716 11.3626C-0.000758976 57.987 -0.000170437 104.611 0.000418101 151.236L0.000627534 168.525C0.000627534 172.758 0.00288101 172.76 4.16606 172.761C20.7356 172.762 37.3051 172.756 53.8747 172.771C55.0545 172.772 56.2341 172.917 57.8296 173.12C62.2591 171.67 64.8945 168.854 64.9703 164.456C65.1176 155.889 64.975 147.317 64.9525 138.747C64.7156 138.656 64.6436 138.509 64.7693 138.035C56.5984 134.205 48.3945 130.647 39.7848 126.913L39.7837 126.912C39.7837 128.308 39.794 129.263 39.7821 130.218C39.676 138.741 39.6785 147.268 39.3668 155.784C39.3003 157.602 38.5743 159.902 37.3112 161.073C33.7214 164.399 29.6972 167.256 25.5167 170.556V88.0514C25.5167 61.3061 25.4931 30.7123 25.4931 3.62584C29.7598 7.06905 33.754 9.97772 37.3201 13.3403C38.5727 14.5214 39.3266 16.8047 39.3646 18.6046C39.5626 28 39.457 37.4018 39.457 47.3181Z" fill="white"/>
<path d="M147.406 78.6377C145.869 87.8219 139.9 92.8173 131.128 95.4927C134.26 97.1288 137.122 98.6194 139.98 100.118C144.47 102.472 147.079 106.068 147.086 111.247C147.111 131.881 147.096 152.515 147.096 173.387C138.367 173.387 129.715 173.387 120.808 173.387C120.808 147.498 120.808 121.65 120.808 95.6477C115.536 95.6477 110.515 95.6477 105.169 95.6477C105.169 121.537 105.169 147.459 105.169 173.562C96.1691 173.562 87.4905 173.562 78.6064 173.562C78.6064 116.051 78.6064 58.5596 78.6064 0.814234C79.2024 0.755683 79.9478 0.619117 80.6933 0.618529C96.171 0.606317 111.649 0.571512 127.126 0.62317C137.329 0.657223 145.056 6.8914 147.3 17.1554C147.318 17.8218 147.459 18.1689 147.601 18.5161C147.703 19.6885 147.893 20.8609 147.894 22.0334C147.908 39.9193 147.897 57.8053 147.65 76.0227C147.407 77.1155 147.406 77.8766 147.406 78.6377ZM104.49 4.98225C104.302 5.71064 103.949 6.43885 103.948 7.16745C103.92 33.9199 103.916 60.6725 103.966 87.4249C103.967 88.2635 104.572 89.1009 105.016 90.4167C105.072 90.8948 105.129 91.3729 105.234 92.2583C109.533 89.159 113.578 86.1923 117.679 83.3046C120.153 81.5631 121.253 79.2954 121.244 76.2484C121.189 57.6038 121.192 38.9588 121.244 20.3142C121.251 17.6302 120.399 15.4588 118.319 13.8313C114.423 10.7825 110.491 7.77875 106.525 4.82351C106.175 4.56328 105.457 4.79814 104.49 4.98225Z" fill="white"/>
<path d="M227.02 36.5644C218.899 40.0587 210.778 43.553 202.028 47.3181C202.028 37.4018 202.133 28 201.935 18.6046C201.897 16.8047 201.143 14.5214 199.891 13.3403C196.325 9.97772 192.331 7.06905 188.064 3.62584C188.064 30.7123 188.064 57.1816 188.064 83.9269C193.125 83.9269 198.153 83.9269 203.452 84.2522C203.724 88.5881 203.778 92.6001 203.685 96.6087C203.662 97.589 203.157 98.5581 202.873 99.5324C198.047 95.7846 193.22 92.0367 188.087 88.0514C188.087 115.585 188.087 142.825 188.087 170.556C192.268 167.256 196.292 164.399 199.882 161.073C201.145 159.902 201.871 157.602 201.938 155.784C202.249 147.268 202.247 138.741 202.353 130.218C202.365 129.263 202.355 128.308 202.355 126.912C210.965 130.647 219.169 134.205 227.34 138.035C227.214 138.509 227.286 138.656 227.523 138.747C227.546 147.317 227.688 155.889 227.541 164.456C227.465 168.854 224.83 171.67 220.4 173.12C218.805 172.917 217.625 172.772 216.445 172.771C199.876 172.756 183.306 172.762 166.737 172.761C162.574 172.76 162.571 172.758 162.571 168.525C162.571 116.138 162.57 63.7501 162.574 11.3626C162.574 7.79172 162.621 4.22088 162.646 0.650028C181.073 0.629931 199.499 0.557445 217.926 0.62177C223.429 0.640981 227.488 4.71162 227.577 10.2213C227.712 18.5411 227.628 26.8644 227.449 35.564C227.181 36.1493 227.1 36.3569 227.02 36.5644Z" fill="white"/>
<path d="M267.319 173.213C266.206 173.36 265.094 173.629 263.982 173.634C256.956 173.666 249.93 173.639 242.624 173.393C242.355 172.94 242.366 172.726 242.369 172.24C242.372 114.846 242.383 57.7231 242.393 0.600168C259.077 0.58971 275.76 0.57925 292.761 0.798346C293.654 1.04678 294.229 1.06566 294.804 1.08454C303.252 2.55691 309.656 10.0047 310.216 19.0101C310.235 19.3067 310.247 19.6043 310.247 19.9014C310.237 70.8572 310.225 121.813 310.211 172.769C310.211 172.867 310.184 172.965 309.864 173.09C309.392 173.189 309.225 173.261 309.059 173.333C301.313 173.39 293.568 173.446 285.494 173.321C284.994 173.192 284.822 173.246 284.651 173.299C284.466 172.309 284.121 171.32 284.12 170.33C284.09 146.549 284.097 122.769 284.097 98.9882C284.097 97.9073 284.097 96.8263 284.097 95.5728C278.634 95.5728 273.327 95.5728 267.562 95.5728C267.562 121.053 267.562 146.568 267.404 172.405C267.199 172.776 267.102 172.847 267.112 172.87C267.166 172.991 267.247 173.1 267.319 173.213ZM270.997 90.1814C274.277 87.7913 277.75 85.6173 280.755 82.9214C282.297 81.5377 283.922 79.2333 283.945 77.326C284.176 58.3833 284.129 39.4364 284.028 20.4915C284.01 17.1168 282.679 14.2396 279.594 12.2299C276.118 9.96463 272.878 7.33826 269.511 4.90203C269.021 4.5474 268.398 4.37647 267.763 4.08724C267.763 33.5914 267.763 62.7966 267.763 92.4444C268.946 91.6223 269.798 91.0303 270.997 90.1814Z" fill="white"/>
<path d="M342.687 51.6293C342.603 47.3783 342.43 43.1256 342.517 38.8782C342.533 38.1089 343.462 37.0609 344.238 36.6519C350.517 33.3423 356.863 30.16 363.182 26.9241C364.112 26.4475 365.003 25.8936 365.913 25.3755C365.864 25.0659 365.815 24.7563 365.766 24.4466C352.234 24.4466 338.702 24.4466 324.825 24.2617C324.347 23.9228 324.183 23.8146 323.989 23.7521C323.948 16.395 323.906 9.03797 324.055 1.35106C324.412 0.928891 324.534 0.795994 324.611 0.622535C346.47 0.592076 368.329 0.561617 390.529 0.688161C390.985 0.97759 391.126 1.07119 391.293 1.12596C391.332 8.48858 391.371 15.8512 391.23 23.5504C390.893 24.0016 390.785 24.1516 390.727 24.3372C384.401 24.4218 378.075 24.5063 371.452 24.8094C371.198 25.1943 371.242 25.3608 371.287 25.5272C371.357 26.2107 371.488 26.8941 371.488 27.5775C371.491 75.7543 371.484 123.931 371.281 172.417C370.888 172.983 370.691 173.239 370.493 173.495C362.078 173.537 353.662 173.579 345.187 173.345C345.209 172.862 345.13 172.718 344.891 172.637C344.731 168.051 344.571 163.464 344.643 158.526C344.738 157.044 344.6 155.913 344.462 154.782C344.186 140.148 343.907 125.514 343.635 110.88C343.293 92.3871 342.957 73.8936 342.875 54.9947C342.983 53.6025 342.835 52.6159 342.687 51.6293Z" fill="white"/>
<path d="M406.9 0.615639C414.863 0.583881 422.826 0.552124 431.064 0.842726C431.339 39.5615 431.334 77.9579 431.343 116.354C431.347 135.403 431.379 154.452 431.398 173.501C423.144 173.546 414.89 173.592 406.583 173.347C406.446 172.909 406.363 172.762 406.281 172.615C406.228 172.026 406.13 171.437 406.13 170.849C406.129 114.456 406.136 58.0629 406.336 1.33975C406.698 0.920033 406.821 0.788774 406.9 0.615639Z" fill="white"/>
<path d="M446.632 172.682C446.612 163.554 446.632 156.09 446.632 152.711C446.63 104.883 446.578 49.6417 446.766 1.47032C447.102 0.993298 447.209 0.830105 447.27 0.637018C455.548 0.594182 463.825 0.551346 472.369 0.733182C472.636 1.06399 472.637 1.17012 472.64 1.55489C472.644 9.07483 472.646 16.3161 472.646 23.5574C472.647 66.6085 472.639 109.66 472.689 152.711C472.69 153.837 473.314 154.964 473.648 156.09C473.893 156.73 473.96 157.563 474.408 157.98C479.679 162.873 485.007 167.703 490.67 172.364C495.926 172.177 500.833 172.136 505.739 172.212C506.739 172.228 507.731 172.689 508.727 172.945C507.866 173.057 507.005 173.266 506.144 173.268C486.505 173.303 466.866 173.315 446.955 173.139C446.683 172.945 446.632 172.682 446.632 172.682Z" fill="white"/>
<path d="M508.959 172.984C507.723 172.688 506.721 172.227 505.713 172.211C500.764 172.135 495.814 172.176 490.593 172.176C490.288 171.485 490.224 170.794 490.224 170.103C490.222 114.009 490.226 57.9152 490.391 1.54459C490.553 1.26767 490.795 1.26591 490.925 1.19346C491.167 0.95942 491.279 0.797829 491.391 0.63623C499.741 0.593506 508.091 0.55079 516.771 0.697961C517.196 1.05457 517.33 1.17795 517.504 1.258C517.537 1.94963 517.597 2.64126 517.597 3.3329C517.601 56.174 517.605 109.015 517.597 161.856C517.596 168.177 514.904 171.714 508.959 172.984Z" fill="white"/>
<path d="M599.802 35.9706C591.681 39.4649 583.56 42.9593 574.81 46.7244C574.81 36.8081 574.916 27.4063 574.718 18.0109C574.68 16.211 573.926 13.9277 572.673 12.7466C569.107 9.38397 565.113 6.4753 560.846 3.03209C560.846 30.1186 560.846 56.5878 560.846 83.3331C565.908 83.3331 570.936 83.3331 576.235 83.6584C576.506 87.9944 576.561 92.0064 576.468 96.015C576.445 96.9953 575.939 97.9644 575.656 98.9386C570.829 95.1908 566.003 91.443 560.87 87.4577C560.87 114.992 560.87 142.231 560.87 169.962C565.05 166.662 569.075 163.805 572.664 160.479C573.928 159.309 574.654 157.008 574.72 155.19C575.032 146.675 575.029 138.147 575.135 129.624C575.147 128.669 575.137 127.714 575.137 126.318C583.747 130.053 591.951 133.611 600.123 137.441C599.997 137.915 600.069 138.062 600.306 138.153C600.328 146.723 600.471 155.295 600.324 163.863C600.248 168.261 597.612 171.076 593.183 172.527C591.587 172.323 590.408 172.179 589.228 172.178C572.658 172.163 556.089 172.168 539.519 172.167C535.356 172.167 535.354 172.164 535.354 167.931C535.353 115.544 535.352 63.1564 535.357 10.7688C535.357 7.19797 535.404 3.62713 535.429 0.0562775C553.855 0.0361806 572.282 -0.0363046 590.708 0.0280199C596.211 0.0472313 600.27 4.11787 600.36 9.62757C600.495 17.9473 600.411 26.2707 600.232 34.9703C599.964 35.5556 599.883 35.7631 599.802 35.9706Z" fill="white"/>
<path d="M766.669 172.444C765.551 172.591 764.434 172.86 763.315 172.865C756.255 172.896 749.194 172.87 741.852 172.624C741.581 172.172 741.592 171.957 741.595 171.472C741.598 114.135 741.609 57.07 741.62 0.00446011C758.386 -0.00598753 775.152 -0.0164362 792.238 0.202439C793.136 0.450625 793.714 0.469488 794.292 0.48835C802.781 1.95924 809.217 9.39958 809.78 18.3959C809.799 18.6922 809.811 18.9895 809.811 19.2863C809.801 70.1909 809.789 121.096 809.775 172C809.775 172.098 809.748 172.196 809.426 172.321C808.952 172.42 808.784 172.492 808.617 172.564C800.833 172.62 793.049 172.677 784.935 172.552C784.432 172.423 784.26 172.476 784.088 172.53C783.902 171.541 783.555 170.553 783.554 169.564C783.524 145.807 783.531 122.05 783.531 98.2936C783.531 97.2138 783.531 96.1339 783.531 94.8817C778.041 94.8817 772.707 94.8817 766.914 94.8817C766.914 120.336 766.914 145.826 766.755 171.637C766.549 172.007 766.451 172.078 766.461 172.101C766.516 172.222 766.597 172.331 766.669 172.444ZM770.366 89.4957C773.662 87.1079 777.152 84.9362 780.172 82.243C781.722 80.8607 783.355 78.5586 783.379 76.6532C783.61 57.7296 783.563 38.8017 783.461 19.8758C783.443 16.5045 782.106 13.6302 779.006 11.6225C775.512 9.35951 772.256 6.73578 768.872 4.302C768.38 3.94773 767.754 3.77697 767.116 3.48803C767.116 32.9625 767.116 62.1384 767.116 91.7564C768.305 90.9351 769.161 90.3437 770.366 89.4957Z" fill="white"/>
<path d="M704.442 159.476C700.549 163.067 696.269 166.251 691.742 169.907V93.355V92.1482V88.2366C691.742 92.1482 691.73 88.2461 691.724 88.2509V3.1347V5.21747e-05C683.745 0.000536041 675.767 0.00163948 667.789 0.00166833L665.098 0.00166833C665.051 0.687654 665.002 1.06616 665.002 1.44467C664.999 57.8013 664.996 114.158 665.02 170.515C665.02 171.229 665.348 171.942 665.524 172.656H665.524C665.719 172.591 665.915 172.526 666.448 172.658C684.775 172.863 702.764 172.895 720.753 172.867C727.954 172.856 731.942 168.902 731.972 161.843C732.004 154.318 731.929 146.792 732.019 139.268C732.039 137.652 731.593 136.833 730.021 136.194C723.19 133.415 716.423 130.482 709.63 127.611C708.579 127.167 707.514 126.755 706.008 126.147C706.008 136.002 706.08 145.298 705.942 154.591C705.917 156.259 705.545 158.459 704.442 159.476Z" fill="white"/>
<path d="M819.984 0.105098C836.8 0.084322 853.619 -0.126881 870.431 0.115374C880.255 0.256929 888.541 8.76381 888.648 18.7212C888.855 38.0472 888.84 57.3782 888.656 76.7046C888.561 86.68 879.881 94.8772 869.578 95.076C861.736 95.2273 853.89 95.106 845.721 95.106C845.721 120.984 845.721 146.652 845.399 172.595C836.543 172.872 828.01 172.874 819.477 172.875C819.445 172.181 819.385 171.486 819.385 170.792C819.384 114.248 819.387 57.7048 819.541 0.82434C819.824 0.386418 819.921 0.259003 819.984 0.105098ZM862.444 18.1223C861.251 16.1711 860.434 13.7857 858.787 12.3596C855.425 9.44812 851.627 7.03805 847.982 4.46007C847.397 4.04662 846.671 3.83322 845.936 3.49268C845.936 33.0304 845.936 62.2261 845.936 92.08C850.551 88.6273 854.878 85.6843 858.825 82.2986C860.492 80.8692 861.36 78.507 863.018 76.3952C863.214 75.7662 863.578 75.1376 863.579 74.5083C863.61 56.5943 863.616 38.6802 863.561 20.7663C863.559 20.0327 862.93 19.301 862.444 18.1223Z" fill="white"/>
<path d="M888.537 157.441C888.431 165.64 880.156 172.645 870.346 172.762C862.194 172.859 838.89 172.875 830.736 172.857L845.373 169.866C846.107 169.586 847.345 169.524 847.929 169.184C851.569 167.061 855.362 165.077 858.719 162.679C860.363 161.505 861.18 159.541 862.371 157.934C862.856 156.963 863.484 156.361 863.486 155.757C863.541 141.006 863.535 126.254 863.504 111.503C863.503 110.985 863.139 110.467 862.944 109.949C861.288 108.21 860.421 106.265 858.757 105.088C854.815 102.3 850.281 99.8768 845.672 97.0336L845.672 94.5419C853.829 94.5419 861.664 94.442 869.494 94.5666C879.782 94.7303 888.451 101.48 888.545 109.694C888.729 125.609 888.743 141.527 888.537 157.441Z" fill="white"/>
</svg>
