<svg width="451" height="131" viewBox="0 0 451 131" fill="none" xmlns="http://www.w3.org/2000/svg">
<path d="M29.6374 35.542L48.4098 27.4645L48.4098 27.4644C48.4704 27.3086 48.5309 27.1527 48.7325 26.7131C48.8669 20.1786 48.9299 13.9267 48.8285 7.67738C48.7613 3.53886 45.7124 0.481276 41.5788 0.466845C27.7383 0.418529 13.8975 0.472975 0.0567659 0.48807C0.0378733 3.17025 0.00276448 5.85244 0.00249163 8.53462C-0.000570092 43.5558 -0.000128021 78.577 0.00031405 113.598L0.000471362 126.585C0.000471362 129.764 0.00216403 129.766 3.12927 129.766C15.5752 129.767 28.0211 129.763 40.4671 129.774C41.3533 129.775 42.2393 129.884 43.4377 130.036C46.7649 128.947 48.7444 126.832 48.8013 123.528C48.912 117.093 48.8049 110.654 48.788 104.217C48.6101 104.149 48.556 104.038 48.6504 103.683C42.5127 100.806 36.3503 98.1329 29.883 95.3279L29.8829 95.3278C29.8829 96.3759 29.8906 97.0934 29.8817 97.8107C29.802 104.213 29.8039 110.618 29.5697 117.014C29.5198 118.38 28.9744 120.108 28.0257 120.987C25.3293 123.485 22.3065 125.631 19.1664 128.11V66.1382C19.1664 46.0489 19.1487 23.0689 19.1487 2.7233C22.3536 5.30961 25.3538 7.49441 28.0324 10.0202C28.9732 10.9073 29.5395 12.6224 29.568 13.9743C29.7168 21.0315 29.6374 28.0936 29.6374 35.542Z" fill="#FFFFFF"/>
<path d="M110.721 59.0672C109.566 65.9657 105.083 69.718 98.4938 71.7276C100.846 72.9565 102.996 74.0761 105.143 75.2016C108.515 76.9697 110.476 79.6713 110.48 83.561C110.499 99.06 110.488 114.559 110.488 130.237C103.932 130.237 97.4331 130.237 90.7422 130.237C90.7422 110.791 90.7422 91.3751 90.7422 71.844C86.7827 71.844 83.0108 71.844 78.9953 71.844C78.9953 91.2906 78.9953 110.761 78.9953 130.368C72.2354 130.368 65.7166 130.368 59.0435 130.368C59.0435 87.1692 59.0435 43.9859 59.0435 0.611411C59.4911 0.567432 60.051 0.464853 60.611 0.464411C72.2368 0.455238 83.8627 0.429095 95.4884 0.467897C103.152 0.493475 108.956 5.17617 110.642 12.8858C110.655 13.3863 110.761 13.6471 110.868 13.9079C110.945 14.7885 111.087 15.6691 111.088 16.5499C111.098 29.9846 111.09 43.4193 110.904 57.103C110.722 57.9238 110.721 58.4955 110.721 59.0672ZM78.4855 3.74214C78.3439 4.28926 78.0792 4.83625 78.0787 5.38352C78.0574 25.4782 78.0542 45.5729 78.0915 65.6676C78.0926 66.2974 78.5467 66.9265 78.8805 67.9148C78.923 68.2739 78.9655 68.633 79.0442 69.2981C82.2732 66.9701 85.3118 64.7417 88.3923 62.5727C90.2501 61.2646 91.0767 59.5612 91.0699 57.2725C91.0285 43.2679 91.031 29.2631 91.0698 15.2585C91.0753 13.2424 90.4352 11.6114 88.873 10.3889C85.9467 8.09894 82.9934 5.84269 80.0136 3.62291C79.7512 3.42745 79.2118 3.60386 78.4855 3.74214Z" fill="#FFFFFF"/>
<path d="M170.522 27.4645C164.422 30.0892 158.323 32.7139 151.75 35.542C151.75 28.0936 151.829 21.0315 151.681 13.9743C151.652 12.6224 151.086 10.9073 150.145 10.0202C147.466 7.49441 144.466 5.30961 141.261 2.7233C141.261 23.0689 141.261 42.9508 141.261 63.0401C145.063 63.0401 148.84 63.0401 152.82 63.2844C153.024 66.5413 153.065 69.5549 152.995 72.5658C152.978 73.3022 152.598 74.0301 152.385 74.7619C148.76 71.9468 145.134 69.1317 141.279 66.1382C141.279 86.8199 141.279 107.28 141.279 128.11C144.419 125.631 147.442 123.485 150.138 120.987C151.087 120.108 151.632 118.38 151.682 117.014C151.916 110.618 151.915 104.213 151.994 97.8107C152.003 97.0934 151.995 96.3759 151.995 95.3278C158.463 98.1328 164.625 100.806 170.763 103.683C170.669 104.038 170.723 104.149 170.901 104.217C170.917 110.654 171.025 117.093 170.914 123.528C170.857 126.832 168.877 128.947 165.55 130.036C164.352 129.884 163.466 129.775 162.58 129.774C150.134 129.763 137.688 129.767 125.242 129.766C122.115 129.766 122.113 129.764 122.113 126.585C122.113 87.2347 122.112 47.8847 122.115 8.53462C122.115 5.85244 122.15 3.17025 122.169 0.48807C136.01 0.472975 149.851 0.418529 163.691 0.466845C167.825 0.481276 170.874 3.53886 170.941 7.67738C171.042 13.9266 170.979 20.1786 170.845 26.7131C170.643 27.1528 170.583 27.3087 170.522 27.4645Z" fill="#FFFFFF"/>
<path d="M200.792 130.106C199.956 130.216 199.121 130.419 198.285 130.422C193.008 130.446 187.73 130.426 182.243 130.241C182.041 129.901 182.049 129.74 182.051 129.375C182.054 86.2644 182.062 43.3575 182.069 0.450619C194.601 0.442764 207.132 0.434907 219.902 0.599478C220.573 0.786086 221.005 0.800268 221.437 0.814451C227.782 1.92039 232.592 7.5147 233.014 14.2789C233.027 14.5017 233.037 14.7252 233.037 14.9484C233.029 53.223 233.02 91.4977 233.01 129.772C233.01 129.846 232.989 129.92 232.749 130.014C232.394 130.088 232.269 130.142 232.144 130.196C226.326 130.239 220.508 130.281 214.444 130.187C214.068 130.09 213.939 130.13 213.811 130.17C213.672 129.427 213.413 128.684 213.412 127.94C213.389 110.078 213.394 92.2156 213.394 74.3531C213.394 73.5412 213.394 72.7293 213.394 71.7878C209.291 71.7878 205.305 71.7878 200.975 71.7878C200.975 90.9269 200.975 110.092 200.856 129.499C200.702 129.778 200.629 129.831 200.636 129.848C200.677 129.939 200.738 130.021 200.792 130.106ZM203.555 67.7381C206.018 65.9428 208.627 64.3098 210.884 62.2848C212.043 61.2455 213.263 59.5146 213.281 58.0819C213.454 43.8535 213.419 29.6218 213.342 15.3916C213.329 12.8568 212.329 10.6957 210.012 9.18609C207.401 7.48458 204.967 5.51183 202.438 3.68189C202.07 3.41552 201.602 3.28713 201.126 3.06987C201.126 25.2314 201.126 47.1685 201.126 69.4379C202.014 68.8204 202.654 68.3757 203.555 67.7381Z" fill="#FFFFFF"/>
<path d="M257.404 38.7803C257.341 35.5873 257.211 32.3929 257.276 29.2025C257.288 28.6247 257.986 27.8375 258.568 27.5303C263.285 25.0443 268.052 22.654 272.798 20.2234C273.497 19.8654 274.166 19.4494 274.849 19.0602C274.813 18.8276 274.776 18.5951 274.74 18.3625C264.575 18.3625 254.411 18.3625 243.987 18.2236C243.628 17.969 243.505 17.8877 243.359 17.8408C243.328 12.3147 243.297 6.78853 243.409 1.01464C243.677 0.697534 243.768 0.597711 243.827 0.46742C260.245 0.444541 276.664 0.421662 293.339 0.516714C293.682 0.734113 293.788 0.804418 293.913 0.845557C293.943 6.37587 293.972 11.9062 293.866 17.6893C293.613 18.0282 293.532 18.1409 293.488 18.2803C288.737 18.3438 283.985 18.4073 279.01 18.6349C278.82 18.9241 278.853 19.0491 278.886 19.1742C278.939 19.6875 279.038 20.2009 279.038 20.7142C279.04 56.9014 279.034 93.0886 278.882 129.508C278.587 129.933 278.438 130.125 278.29 130.318C271.969 130.349 265.647 130.381 259.282 130.205C259.298 129.842 259.239 129.734 259.059 129.673C258.939 126.228 258.819 122.783 258.873 119.074C258.944 117.961 258.841 117.111 258.737 116.261C258.53 105.27 258.32 94.2777 258.116 83.2858C257.859 69.3949 257.606 55.5038 257.545 41.3081C257.626 40.2624 257.515 39.5214 257.404 38.7803Z" fill="#FFFFFF"/>
<path d="M305.636 0.46224C311.617 0.438386 317.599 0.414532 323.786 0.632813C323.993 29.7158 323.989 58.5566 323.996 87.3974C323.999 101.706 324.023 116.014 324.037 130.322C317.837 130.356 311.638 130.39 305.398 130.206C305.295 129.878 305.233 129.767 305.171 129.656C305.131 129.214 305.058 128.772 305.058 128.33C305.057 85.9714 305.062 43.6128 305.213 1.00614C305.484 0.69088 305.577 0.592288 305.636 0.46224Z" fill="#FFFFFF"/>
<path d="M335.481 129.706C335.465 122.849 335.481 117.243 335.481 114.705C335.479 78.7798 335.44 37.2864 335.581 1.10324C335.834 0.744931 335.914 0.622352 335.96 0.477317C342.178 0.445142 348.395 0.412966 354.812 0.54955C355.013 0.79803 355.014 0.877749 355.016 1.16677C355.019 6.81524 355.021 12.2544 355.021 17.6936C355.021 50.0307 355.015 82.3677 355.053 114.705C355.054 115.551 355.523 116.397 355.773 117.243C355.957 117.724 356.008 118.35 356.344 118.663C360.303 122.338 364.305 125.966 368.559 129.467C372.507 129.327 376.193 129.296 379.878 129.353C380.629 129.365 381.374 129.711 382.122 129.904C381.476 129.988 380.829 130.145 380.182 130.146C365.43 130.172 350.679 130.182 335.723 130.049C335.519 129.904 335.481 129.706 335.481 129.706Z" fill="#FFFFFF"/>
<path d="M382.296 129.934C381.368 129.712 380.615 129.365 379.858 129.353C376.141 129.296 372.423 129.327 368.501 129.327C368.272 128.808 368.224 128.289 368.224 127.77C368.223 85.6358 368.225 43.5019 368.349 1.16001C368.471 0.952006 368.653 0.950682 368.751 0.896262C368.932 0.720465 369.017 0.599089 369.101 0.477706C375.373 0.445615 381.644 0.41353 388.164 0.524075C388.483 0.791934 388.584 0.884611 388.715 0.944736C388.739 1.46424 388.785 1.98375 388.785 2.50326C388.788 42.194 388.791 81.8847 388.785 121.575C388.784 126.323 386.762 128.98 382.296 129.934Z" fill="#FFFFFF"/>
<path d="M450.531 27.0173C444.431 29.642 438.331 32.2667 431.759 35.0948C431.759 27.6463 431.838 20.5843 431.689 13.5271C431.661 12.1751 431.095 10.4601 430.154 9.5729C427.475 7.04714 424.475 4.86235 421.27 2.27604C421.27 22.6216 421.27 42.5035 421.27 62.5928C425.072 62.5928 428.848 62.5928 432.829 62.8371C433.033 66.0941 433.073 69.1076 433.004 72.1186C432.987 72.8549 432.607 73.5828 432.394 74.3146C428.768 71.4995 425.143 68.6844 421.288 65.6909C421.288 86.3726 421.288 106.833 421.288 127.663C424.428 125.184 427.451 123.038 430.147 120.54C431.096 119.66 431.641 117.932 431.691 116.567C431.925 110.171 431.923 103.766 432.003 97.3635C432.012 96.6462 432.004 95.9286 432.004 94.8806C438.472 97.6855 444.634 100.358 450.772 103.235C450.677 103.591 450.731 103.701 450.909 103.77C450.926 110.207 451.033 116.646 450.923 123.081C450.866 126.385 448.886 128.499 445.559 129.589C444.361 129.436 443.475 129.328 442.588 129.327C430.142 129.316 417.697 129.32 405.251 129.319C402.124 129.319 402.122 129.317 402.122 126.137C402.121 86.7874 402.12 47.4374 402.124 8.08736C402.124 5.40517 402.159 2.72299 402.178 0.0408049C416.019 0.0257094 429.86 -0.0287366 443.7 0.0195797C447.834 0.03401 450.883 3.0916 450.95 7.23012C451.051 13.4794 450.988 19.7313 450.854 26.2659C450.652 26.7055 450.592 26.8614 450.531 27.0173Z" fill="#FFFFFF"/>
</svg>
