<svg width="40" height="40" viewBox="0 0 40 40" fill="none" xmlns="http://www.w3.org/2000/svg">
<g clip-path="url(#clip0_575_119683)">
<path d="M15.4877 25.7895C11.7933 24.3026 9.83896 20.8347 10.7925 17.2762C11.18 15.8299 12.1189 14.4071 13.2658 13.599C13.1454 12.5439 13.7462 10.5336 14.4049 9.81146C15.6001 9.97711 16.9994 11.0036 17.7011 12.0889C18.8925 12.0368 20.0969 12.1731 21.5149 12.5531C22.9316 12.9327 24.0428 13.4168 24.9982 14.0137C26.1117 13.4438 27.866 13.2638 28.9839 13.7179C29.1805 14.6071 28.6956 16.6485 28.055 17.53C28.6875 18.8784 28.7828 20.4858 28.38 21.9888C27.4265 25.5472 24.0152 27.5168 20.0081 26.9704C20.8203 27.8699 21.1141 29.4367 20.6879 31.0272L19.8818 34.0357C19.6492 34.9038 20.2399 35.5894 21.2011 35.4742C26.9726 34.8811 32.4825 30.7463 34.2187 24.2669C36.4124 16.0797 31.5495 7.61531 23.3636 5.4219C15.1751 3.22781 6.79072 8.14257 4.59697 16.3298C2.87634 22.7512 5.52851 29.1683 10.4907 32.6361C11.1935 33.135 12.0854 32.815 12.2946 32.0345L12.915 29.7189C12.4256 29.7849 11.9281 29.7565 11.4494 29.6353C9.53943 29.1236 8.69006 27.7806 8.40062 25.6256C8.29198 24.7586 8.06814 24.2031 7.42541 23.9384C7.08562 23.8156 7.00964 23.6407 7.05623 23.4668C7.14941 23.1191 7.79833 23.0155 8.37531 23.1701C9.21502 23.3951 9.79811 24.109 10.2635 25.3808C10.6184 26.3745 11.1242 26.9131 11.848 27.107C12.5705 27.3006 13.1026 27.1644 13.9468 26.6769C14.5703 26.3181 15.0623 25.9861 15.4877 25.7895Z" fill="white"/>
</g>
<defs>
<clipPath id="clip0_575_119683">
<rect width="32" height="32" fill="white" transform="translate(8.28223) rotate(15)"/>
</clipPath>
</defs>
</svg>
