<svg width="170" height="131" viewBox="0 0 170 131" fill="none" xmlns="http://www.w3.org/2000/svg">
<path d="M77.0026 130.607C76.156 130.718 75.3098 130.922 74.4627 130.925C69.115 130.949 63.7671 130.929 58.2063 130.743C58.0016 130.4 58.0098 130.238 58.0122 129.871C58.0145 86.4447 58.0226 43.224 58.0307 0.00337803C70.7292 -0.00453487 83.4278 -0.0124486 96.3685 0.153325C97.0483 0.341298 97.486 0.355584 97.9237 0.36987C104.353 1.4839 109.228 7.11912 109.655 13.9328C109.669 14.1572 109.678 14.3824 109.678 14.6072C109.67 53.1617 109.661 91.7162 109.651 130.271C109.651 130.345 109.63 130.419 109.386 130.514C109.027 130.589 108.9 130.643 108.774 130.698C102.878 130.74 96.9827 130.783 90.8369 130.688C90.4563 130.591 90.3259 130.631 90.1955 130.672C90.0548 129.923 89.7922 129.174 89.7912 128.425C89.7683 110.432 89.7734 92.4393 89.7734 74.4463C89.7734 73.6284 89.7734 72.8106 89.7734 71.8622C85.6156 71.8622 81.576 71.8622 77.188 71.8622C77.188 91.1413 77.188 110.447 77.0679 129.996C76.9116 130.276 76.8375 130.33 76.8453 130.347C76.8864 130.439 76.9481 130.521 77.0026 130.607ZM79.8027 67.7828C82.2988 65.9744 84.9425 64.3295 87.2298 62.2898C88.4038 61.2428 89.6406 59.4993 89.6582 58.0561C89.8336 43.7236 89.7982 29.3879 89.721 15.0536C89.7072 12.5003 88.6942 10.3234 86.3466 8.80273C83.7004 7.08877 81.2341 5.1016 78.6713 3.25828C78.2983 2.98996 77.8241 2.86063 77.3411 2.64178C77.3411 24.9654 77.3411 47.0628 77.3411 69.4951C78.2415 68.8731 78.8899 68.4251 79.8027 67.7828Z" fill="#FFFFFF"/>
<path d="M29.8731 120.785C26.9243 123.505 23.6824 125.916 20.2543 128.685V70.7059V69.7918V66.8292C20.2543 69.7918 20.2449 66.8364 20.2402 66.84L20.2402 2.37418V3.95164e-05C14.1975 0.000405991 8.15474 0.00124172 2.112 0.00126357L0.0739919 0.00126357C0.0385314 0.52082 0.0017598 0.807497 0.0017598 1.09418C-0.00108615 43.778 -0.00267611 86.4618 0.0150121 129.146C0.0152356 129.686 0.263877 130.227 0.396567 130.768H0.396585C0.544726 130.718 0.69285 130.669 1.0969 130.769C14.9775 130.924 28.6022 130.948 42.2267 130.927C47.6809 130.919 50.7011 127.924 50.7239 122.578C50.7483 116.878 50.6911 111.178 50.7595 105.48C50.7742 104.256 50.4364 103.636 49.2464 103.152C44.0724 101.047 38.9472 98.8253 33.8023 96.6509C33.0064 96.3145 32.1998 96.0025 31.0588 95.5423C31.0588 103.006 31.1132 110.047 31.0087 117.085C30.9899 118.348 30.7081 120.015 29.8731 120.785Z" fill="#FFFFFF"/>
<path d="M117.383 0.0795999C130.119 0.0638644 142.857 -0.0960977 155.591 0.0873826C163.031 0.194595 169.307 6.6376 169.388 14.1792C169.544 28.8165 169.534 43.4575 169.394 58.0951C169.322 65.6503 162.748 71.8587 154.944 72.0093C149.006 72.1239 143.063 72.0321 136.876 72.0321C136.876 91.6317 136.876 111.073 136.632 130.721C129.924 130.931 123.461 130.932 116.999 130.934C116.974 130.408 116.929 129.882 116.929 129.356C116.928 86.5302 116.931 43.7049 117.047 0.624345C117.262 0.292668 117.335 0.196165 117.383 0.0795999ZM149.542 13.7256C148.638 12.2478 148.019 10.4411 146.772 9.36104C144.225 7.15588 141.349 5.33053 138.588 3.378C138.145 3.06486 137.595 2.90323 137.039 2.64531C137.039 25.0168 137.039 47.1292 137.039 69.7402C140.534 67.1251 143.811 64.8962 146.801 62.3319C148.063 61.2492 148.721 59.4602 149.977 57.8607C150.124 57.3843 150.4 56.9082 150.401 56.4316C150.425 42.8638 150.429 29.2959 150.388 15.7281C150.386 15.1725 149.91 14.6183 149.542 13.7256Z" fill="#FFFFFF"/>
<path d="M169.304 119.243C169.224 125.453 162.957 130.759 155.527 130.847C149.353 130.92 131.703 130.933 125.527 130.919L136.613 128.654C137.169 128.441 138.106 128.395 138.548 128.137C141.306 126.529 144.178 125.026 146.721 123.21C147.966 122.321 148.584 120.833 149.487 119.617C149.854 118.881 150.33 118.425 150.332 117.968C150.373 106.795 150.368 95.6227 150.345 84.4503C150.344 84.0579 150.068 83.6658 149.921 83.2736C148.667 81.9565 148.01 80.4833 146.749 79.5918C143.764 77.4802 140.33 75.6448 136.839 73.4915L136.839 71.6042C143.017 71.6042 148.951 71.5286 154.882 71.6229C162.674 71.7469 169.239 76.8593 169.311 83.0806C169.45 95.1339 169.461 107.19 169.304 119.243Z" fill="#FFFFFF"/>
</svg>
