<svg width="72" height="60" viewBox="0 0 72 60" fill="none" xmlns="http://www.w3.org/2000/svg">
<path d="M0.941953 24.22L69.8574 0.0648941C69.925 0.0456009 69.9925 0.0263076 70.06 0.016661C70.6967 -0.0508653 73.7064 -0.137685 70.6581 4.66633C67.2625 10.0299 46.5801 47.3044 46.5801 47.3044C46.5801 47.3044 43.7151 52.6004 38.7664 49.4749C36.2004 47.8543 33.6344 46.2336 30.9719 44.7963L21.9137 39.9247C21.3542 39.6257 21.2867 38.8347 21.7883 38.4488L63.1627 6.46061L12.8748 34.2429C12.6047 34.3876 12.2767 34.3876 12.0163 34.2429L1.12524 28.1269C1.03842 28.0787 0.970892 28.0208 0.903366 27.9533C0.517501 27.5288 -0.717266 25.9564 0.575381 24.4709C0.671848 24.3551 0.806901 24.2683 0.941953 24.22Z" fill="black"/>
<path d="M18.3831 42.5875L29.1776 48.1439C29.7275 48.4237 29.824 49.1664 29.3706 49.5813L18.904 59.17C18.3445 59.6813 17.4377 59.2954 17.4184 58.5333L17.0904 43.3881C17.0808 42.7225 17.785 42.2788 18.3831 42.5875Z" fill="black"/>
</svg>
