<svg width="21" height="28" viewBox="0 0 21 28" fill="none" xmlns="http://www.w3.org/2000/svg">
<path d="M11.52 13.6316C10.704 14.0636 9.26397 14.8316 8.54397 15.3596C7.53597 16.0796 7.00797 16.6556 7.00797 18.2396V19.6796C7.00797 21.1676 7.67997 22.1276 9.16797 22.1276C10.656 22.1276 11.52 21.0236 11.52 19.5356V13.6316ZM-2.72393e-05 17.9516C-2.72393e-05 14.3516 1.48797 12.7676 4.79997 11.4236C6.47997 10.7516 9.31197 9.74358 10.704 9.11959C11.424 8.78359 11.52 8.54359 11.52 7.72758V7.48759C11.52 5.80759 10.992 5.03959 9.21597 5.03959H9.11997C7.43997 5.03959 6.91197 5.85558 6.91197 7.53558V9.11959H0.335973V6.91159C0.335973 2.83158 2.30397 -0.000415802 8.83197 -0.000415802H9.69597C16.224 -0.000415802 18.528 2.44758 18.528 6.91159V19.6796C18.528 20.6396 18.72 21.0236 19.824 21.0236H20.4V26.9756H14.544C12.816 26.9756 11.856 25.8236 11.664 23.9516C10.848 25.0076 9.02397 27.2156 5.90397 27.2156H5.80797C2.20797 27.2156 -2.72393e-05 24.6716 -2.72393e-05 21.0716V17.9516Z" fill="black"/>
</svg>
