<svg width="27" height="36" viewBox="0 0 27 36" fill="none" xmlns="http://www.w3.org/2000/svg">
<path d="M14.784 35.7119H11.328L8.16 20.0159C7.152 15.1679 6.576 12.0479 6.144 9.16791C6.288 12.6719 6.288 15.9839 6.288 20.9759V35.7119H2.08616e-06V-8.67844e-05H9.504L11.856 12.3839C12.576 16.1759 12.912 18.4799 13.248 20.7359C13.584 18.4799 13.92 16.2239 14.64 12.3839L17.04 -8.67844e-05H26.304V35.7119H19.872V20.9759C19.872 16.0319 19.968 12.7679 20.112 9.16791C19.584 11.9999 19.008 15.0719 18.048 19.8239L14.784 35.7119Z" fill="black"/>
</svg>
